mtllib model_0.mtl
o model_0
v 309.0479736328125 159.46316528320312 -22.492799758911133 
v 284.7716979980469 174.12203979492188 -25.44981575012207 
v 285.6407470703125 174.8935546875 -25.70037078857422 
v 254.30772399902344 222.17666625976562 -34.29805374145508 
v 251.90682983398438 218.8701629638672 -33.20762252807617 
v 283.9173889160156 173.4607391357422 -25.022499084472656 
v 249.91848754882812 215.89430236816406 -31.439655303955078 
v 283.0631103515625 172.68922424316406 -24.59518051147461 
v 247.9744415283203 213.02865600585938 -29.141399383544922 
v 282.4150695800781 172.1381378173828 -23.8290958404541 
v 246.59017944335938 210.82431030273438 -26.533889770507812 
v 281.7670593261719 171.58705139160156 -23.06300926208496 
v 245.58895874023438 209.1710662841797 -23.60236930847168 
v 281.3105773925781 171.2563934326172 -22.134920120239258 
v 244.97079467773438 208.0688934326172 -20.346839904785156 
v 281.2076110839844 171.0359649658203 -21.236345291137695 
v 244.88291931152344 207.7382354736328 -17.13558578491211 
v 281.119384765625 170.92575073242188 -20.161006927490234 
v 245.50209045410156 208.0688934326172 -13.983363151550293 
v 281.38470458984375 171.0359649658203 -19.11518669128418 
v 281.63525390625 171.2563934326172 -18.24612808227539 
v 282.23931884765625 171.58705139160156 -17.406585693359375 
v 248.12503051757812 210.82432556152344 -8.1505126953125 
v 249.93727111816406 213.02865600585938 -5.631887912750244 
v 283.0054016113281 172.1381378173828 -16.75856590270996 
v 252.22076416015625 215.89430236816406 -3.864590883255005 
v 283.771484375 172.68922424316406 -16.110546112060547 
v 254.47476196289062 218.8701629638672 -2.4508209228515625 
v 284.6995849609375 173.4607391357422 -15.654047012329102 
v 257.0232238769531 222.1766815185547 -1.7736197710037231 
v 285.59814453125 174.12203979492188 -15.551074981689453 
v 246.65155029296875 209.1710662841797 -10.875415802001953 
v 259.5274353027344 225.70362854003906 -1.626708745956421 
v 286.4967346191406 174.8935546875 -15.448102951049805 
v 287.5425720214844 175.6650848388672 -15.71341609954834 
v 288.41162109375 176.4365997314453 -15.963970184326172 
v 264.19671630859375 232.86773681640625 -3.2625226974487305 
v 266.36181640625 236.1742401123047 -5.045248985290527 
v 289.07440185546875 177.097900390625 -16.553293228149414 
v 268.1438903808594 239.1501007080078 -7.151984691619873 
v 289.899169921875 177.64898681640625 -17.334136962890625 
v 269.51336669921875 241.68508911132812 -9.936257362365723 
v 290.37042236328125 178.08985900878906 -18.08546257019043 
v 270.33782958984375 243.5587921142578 -12.853018760681152 
v 290.6501770019531 178.42050170898438 -18.998796463012695 
v 261.97259521484375 229.34078979492188 -2.186850070953369 
v 270.95599365234375 244.7711639404297 -16.108549118041992 
v 290.929931640625 178.6409454345703 -19.91213035583496 
v 291.01812744140625 178.75115966796875 -20.98746681213379 
v 290.7528076171875 178.6409454345703 -22.033288955688477 
v 270.4247131347656 244.7711639404297 -22.47202491760254 
v 269.2752380371094 243.5587921142578 -25.579971313476562 
v 290.32550048828125 178.42050170898438 -22.887588500976562 
v 267.978515625 241.68508911132812 -28.31963348388672 
v 289.8981628417969 178.08985900878906 -23.74188804626465 
v 289.308837890625 177.64898681640625 -24.404666900634766 
v 266.1810607910156 239.1501007080078 -30.661495208740234 
v 264.0595397949219 236.1742401123047 -32.62031173706055 
v 288.3659973144531 177.097900390625 -25.037927627563477 
v 287.6294250488281 176.4365997314453 -25.332422256469727 
v 286.7160949707031 175.6650848388672 -25.612157821655273 
v 256.7528991699219 225.70361328125 -34.85819625854492 
v 270.8670959472656 245.2120361328125 -19.305044174194336 
v 259.2571105957031 229.34078979492188 -34.71128463745117 
v 261.6288146972656 232.8677215576172 -34.019325256347656 
v 221.07421875 260.6424255371094 -44.33902359008789 
v 220.04283142089844 254.80091857910156 -46.03286361694336 
v 218.93797302246094 248.8491973876953 -46.47460174560547 
v 217.74490356445312 243.117919921875 -45.841007232666016 
v 216.47837829589844 237.6070556640625 -43.95530700683594 
v 215.47715759277344 232.53707885742188 -41.02378463745117 
v 214.7560272216797 228.12838745117188 -36.86968231201172 
v 214.25592041015625 224.711669921875 -32.20004653930664 
v 214.00637817382812 222.39710998535156 -26.661354064941406 
v 213.96310424804688 220.4132080078125 -20.783891677856445 
v 214.30287170410156 219.7519073486328 -14.582420349121094 
v 214.9961700439453 220.4132080078125 -8.410466194152832 
v 216.01348876953125 222.39710998535156 -2.6215548515319824 
v 217.17803955078125 224.711669921875 2.799072742462158 
v 218.4603271484375 228.12840270996094 7.497889041900635 
v 219.8455810546875 232.53707885742188 11.29813003540039 
v 221.31906127929688 237.60707092285156 14.02303409576416 
v 222.88075256347656 243.117919921875 15.672599792480469 
v 224.1771240234375 248.84921264648438 16.276344299316406 
v 225.17868041992188 254.80093383789062 15.480741500854492 
v 225.91490173339844 260.6424255371094 13.639317512512207 
v 226.38583374023438 266.0430603027344 10.752071380615234 
v 226.5914306640625 270.8926086425781 6.819005966186523 
v 226.54649353027344 275.08087158203125 2.0168802738189697 
v 226.2657470703125 278.38739013671875 -3.4775383472442627 
v 225.7787322998047 280.37127685546875 -9.310725212097168 
v 225.43896484375 280.8121643066406 -15.51219654083252 
v 224.7456512451172 280.37127685546875 -21.68415069580078 
v 224.25863647460938 278.3873596191406 -27.517337799072266 
v 223.62437438964844 275.08087158203125 -32.98223876953125 
v 222.8871307373047 270.8926086425781 -37.54856872558594 
v 222.0174102783203 266.0430603027344 -41.569847106933594 
v 181.97903442382812 257.9972229003906 -47.838741302490234 
v 183.21603393554688 249.62071228027344 -50.077964782714844 
v 184.0408172607422 241.2442169189453 -50.85880661010742 
v 184.63014221191406 233.08816528320312 -50.19602966308594 
v 184.63047790527344 225.3729705810547 -48.06010818481445 
v 184.5868682861328 218.64971923828125 -44.31856155395508 
v 184.45506286621094 212.8082275390625 -39.50168228149414 
v 184.4117889404297 207.95867919921875 -33.62421798706055 
v 184.26553344726562 204.43173217773438 -26.848182678222656 
v 184.51708984375 202.22738647460938 -19.571372985839844 
v 184.96018981933594 201.3456573486328 -12.132559776306152 
v 185.77154541015625 202.22738647460938 -4.5464982986450195 
v 186.7301483154297 204.43173217773438 2.6712779998779297 
v 187.98326110839844 207.95867919921875 9.152483940124512 
v 189.00057983398438 212.8082275390625 14.941394805908203 
v 189.944091796875 218.6497344970703 19.846492767333984 
v 190.5927734375 225.3729705810547 23.35223960876465 
v 190.94664001464844 233.08816528320312 25.458637237548828 
v 190.4753875732422 241.24423217773438 26.209964752197266 
v 189.53253173828125 249.6207275390625 25.57670021057129 
v 187.9413299560547 257.9972229003906 23.573606491088867 
v 185.8785400390625 266.0430603027344 20.185922622680664 
v 183.5209197998047 273.4276123046875 15.398889541625977 
v 181.08949279785156 279.7099914550781 9.728042602539062 
v 178.77581787109375 284.5595397949219 3.3353824615478516 
v 176.9333953857422 287.535400390625 -3.808603525161743 
v 175.94525146484375 288.52734375 -11.379905700683594 
v 175.67893981933594 287.535400390625 -18.833478927612305 
v 176.3112030029297 284.55950927734375 -26.184078216552734 
v 177.51800537109375 279.7099609375 -33.04866027832031 
v 178.9753875732422 273.4276123046875 -39.044185638427734 
v 180.5213165283203 266.0430603027344 -43.97913360595703 
v 50.40245056152344 250.06158447265625 -73.87629699707031 
v 61.15481948852539 243.9996337890625 -79.40190124511719 
v 72.5263671875 238.709228515625 -81.7752914428711 
v 83.0734634399414 232.5370635986328 -81.23191833496094 
v 92.64886474609375 225.37295532226562 -77.40349578857422 
v 100.6780014038086 217.6577606201172 -70.77603912353516 
v 107.32289123535156 210.27322387695312 -61.54108428955078 
v 112.37724304199219 203.77041625976562 -50.03738784790039 
v 116.51860046386719 198.59022521972656 -36.67750549316406 
v 119.15763854980469 195.504150390625 -22.124221801757812 
v 121.14865112304688 194.18154907226562 -6.804852485656738 
v 122.07908630371094 195.504150390625 8.60306453704834 
v 122.0666732788086 198.59022521972656 23.37771987915039 
v 120.7283706665039 203.7704315185547 37.19510269165039 
v 118.00514221191406 210.2732391357422 49.34815979003906 
v 113.5139389038086 217.6577911376953 59.512882232666016 
v 107.24002075195312 225.37298583984375 67.51251220703125 
v 99.30110168457031 232.53709411621094 72.6252212524414 
v 90.05072021484375 238.70924377441406 74.8215103149414 
v 79.50362396240234 243.99966430664062 74.27813720703125 
v 68.88240051269531 250.0615997314453 70.71503448486328 
v 58.71733856201172 257.5563659667969 64.0879135131836 
v 48.89071273803711 264.6102600097656 55.11860275268555 
v 39.59404373168945 271.1130676269531 43.96909713745117 
v 31.38713264465332 276.4034729003906 30.948657989501953 
v 24.68254280090332 279.930419921875 16.734811782836914 
v 20.570369720458984 281.1427917480469 1.5925407409667969 
v 19.639934539794922 279.930419921875 -13.815376281738281 
v 21.77350425720215 276.4034729003906 -28.76712989807129 
v 26.293548583984375 271.113037109375 -42.850162506103516 
v 32.90557098388672 264.6102294921875 -55.32789993286133 
v 40.93203353881836 257.55633544921875 -65.78778076171875 
v 7.784402370452881 212.58778381347656 -91.85549926757812 
v -2.2159698009490967 218.98036193847656 -81.58679962158203 
v -9.461254119873047 224.82186889648438 -68.16621398925781 
v -13.656950950622559 229.89186096191406 -52.33030700683594 
v -15.200867652893066 233.7494659423828 -34.579856872558594 
v -14.1372709274292 236.50489807128906 -15.445154190063477 
v -11.2470121383667 237.49684143066406 4.249021530151367 
v -6.765885829925537 236.50489807128906 23.810373306274414 
v -1.4599723815917969 233.7494659423828 42.59088134765625 
v 5.127222537994385 229.89187622070312 59.66245651245117 
v 12.789419174194336 224.8218994140625 74.68632507324219 
v 21.968358993530273 218.9803924560547 86.5576400756836 
v 32.8260498046875 212.5878143310547 95.08487701416016 
v 44.97944259643555 205.86456298828125 99.94403076171875 
v 58.57578659057617 198.59024047851562 100.76679992675781 
v 73.26155853271484 191.42613220214844 97.58271789550781 
v 87.26912689208984 184.70289611816406 90.53936004638672 
v 99.0371322631836 180.18399047851562 80.12307739257812 
v 108.41832733154297 177.09791564941406 66.70215606689453 
v 114.19013977050781 174.23226928710938 50.556663513183594 
v 117.67845153808594 171.25640869140625 32.64387512207031 
v 118.55924987792969 169.27249145507812 13.346829414367676 
v 117.61338806152344 168.3907470703125 -6.509685039520264 
v 114.89988708496094 169.27249145507812 -26.218618392944336 
v 110.65455627441406 171.2563934326172 -45.08767318725586 
v 103.89059448242188 174.2322540283203 -62.144493103027344 
v 95.00582122802734 177.09788513183594 -76.88829040527344 
v 82.9839096069336 180.1839599609375 -88.70023345947266 
v 68.59095764160156 184.70286560058594 -96.93230438232422 
v 51.84171676635742 191.4261016845703 -101.40774536132812 
v 35.24039840698242 198.5902099609375 -101.97962951660156 
v 20.37786102294922 205.86453247070312 -98.78079223632812 
v -6.096367359161377 160.56532287597656 -121.66777038574219 
v 15.085368156433105 156.8179473876953 -125.92819213867188 
v 38.447967529296875 152.7399139404297 -125.38683319091797 
v 61.501983642578125 148.22100830078125 -120.01382446289062 
v 82.27350616455078 143.481689453125 -110.0003662109375 
v 100.57101440429688 138.52191162109375 -95.50846099853516 
v 115.61366271972656 134.00302124023438 -77.3628921508789 
v 126.45860290527344 130.1454315185547 -56.19691467285156 
v 133.40032958984375 127.0593490600586 -32.747108459472656 
v 136.88058471679688 125.84696960449219 -8.11832046508789 
v 137.53262329101562 127.05935668945312 16.746599197387695 
v 134.5756072998047 130.14544677734375 41.022865295410156 
v 127.40545654296875 134.0030517578125 63.870933532714844 
v 115.5653305053711 138.52194213867188 84.0829849243164 
v 99.9242935180664 143.48171997070312 101.40846252441406 
v 81.63114166259766 148.22105407714844 114.6834716796875 
v 61.02464294433594 152.7399444580078 123.70175170898438 
v 39.8429069519043 156.81797790527344 127.9621810913086 
v 20.19233512878418 160.56536865234375 127.11089324951172 
v 2.971503257751465 163.54122924804688 121.25086212158203 
v -11.259779930114746 166.18643188476562 110.69135284423828 
v -21.956466674804688 168.72142028808594 95.56484985351562 
v -29.560300827026367 170.92575073242188 76.9761962890625 
v -34.586814880371094 172.68922424316406 55.14644241333008 
v -38.346797943115234 174.12203979492188 31.430986404418945 
v -42.00381851196289 174.67312622070312 6.816956043243408 
v -46.191123962402344 174.12203979492188 -17.752798080444336 
v -49.067291259765625 172.689208984375 -41.54204559326172 
v -49.48320007324219 170.9257354736328 -63.57875061035156 
v -45.612178802490234 168.7213897705078 -83.30345153808594 
v -36.86491775512695 166.1864013671875 -100.05335235595703 
v -23.52113151550293 163.5411834716797 -112.9151382446289 
v -7.3082146644592285 116.58871459960938 -146.84193420410156 
v 21.444826126098633 115.59675598144531 -152.09048461914062 
v 50.670127868652344 114.27415466308594 -151.6826171875 
v 78.61482238769531 112.51068115234375 -145.29397583007812 
v 104.36556243896484 110.0859146118164 -133.2042999267578 
v 126.9795150756836 107.22027587890625 -116.04686737060547 
v 146.2356414794922 104.35462951660156 -94.3371810913086 
v 161.1763153076172 101.81964111328125 -68.88528442382812 
v 171.69825744628906 99.50509643554688 -40.92851638793945 
v 177.00584411621094 98.51313781738281 -11.468423843383789 
v 176.67176818847656 99.5051040649414 18.64069366455078 
v 170.9314727783203 101.81965637207031 47.95521545410156 
v 160.40350341796875 104.35466003417969 75.35552215576172 
v 145.01402282714844 107.22030639648438 99.95781707763672 
v 125.55831909179688 110.08595275878906 120.62770080566406 
v 102.16888427734375 112.51072692871094 136.8201446533203 
v 75.67049407958984 114.27420043945312 147.75430297851562 
v 46.932212829589844 115.59680938720703 153.1796112060547 
v 17.868915557861328 116.58876037597656 152.58023071289062 
v -9.191960334777832 117.13984680175781 146.1177978515625 
v -31.937725067138672 117.47049713134766 133.77723693847656 
v -50.13259506225586 117.91136169433594 116.25084686279297 
v -63.37876510620117 118.46244049072266 94.03938293457031 
v -72.64826202392578 118.90330505371094 68.2919921875 
v -78.92788696289062 119.34416961669922 39.98102951049805 
v -83.36640930175781 119.5645980834961 10.270380020141602 
v -86.19931030273438 119.34415435791016 -19.396326065063477 
v -86.11544799804688 118.90328216552734 -48.238582611083984 
v -81.7889404296875 118.46241760253906 -75.29911804199219 
v -71.7023696899414 117.91132354736328 -99.45866394042969 
v -55.428401947021484 117.47045135498047 -119.86289978027344 
v -33.45307159423828 117.13980102539062 -135.93728637695312 
v -3.5083067417144775 91.45922088623047 -150.36309814453125 
v 26.467317581176758 91.45922088623047 -155.8917236328125 
v 56.7679557800293 91.34901428222656 -155.39564514160156 
v 86.14151000976562 90.90814208984375 -148.94830322265625 
v 113.15911865234375 90.13662719726562 -136.60841369628906 
v 137.2314453125 89.03446197509766 -119.03875732421875 
v 157.57766723632812 87.71185302734375 -97.06409454345703 
v 173.26966857910156 86.49947357177734 -71.14094543457031 
v 184.1894073486328 85.61773681640625 -42.68339920043945 
v 189.5560302734375 84.9564437866211 -12.516253471374512 
v 189.26622009277344 85.61774444580078 18.123151779174805 
v 183.2314453125 86.4994888305664 48.17424774169922 
v 172.04067993164062 87.71188354492188 76.16387939453125 
v 155.63490295410156 89.03449249267578 101.38500213623047 
v 134.79461669921875 90.13666534423828 122.5264892578125 
v 110.19734954833984 90.90818786621094 139.17576599121094 
v 82.29962158203125 91.34906005859375 150.40475463867188 
v 52.50075912475586 91.45926666259766 155.9186248779297 
v 22.02335548400879 91.45926666259766 155.4373016357422 
v -7.7037224769592285 91.34906005859375 149.01947021484375 
v -35.07485580444336 91.34906005859375 136.7091064453125 
v -57.18803405761719 91.34905242919922 119.15385437011719 
v -74.01374053955078 91.34905242919922 96.707275390625 
v -85.97896575927734 91.34904479980469 70.65096282958984 
v -93.90848541259766 91.34903717041016 41.76576614379883 
v -98.39128112792969 91.34903717041016 11.52483081817627 
v -99.8691177368164 91.34902954101562 -18.966995239257812 
v -97.35485076904297 91.34902954101562 -48.54616165161133 
v -89.36058044433594 91.3490219116211 -76.44690704345703 
v -75.94501495361328 91.34901428222656 -101.24038696289062 
v -56.71035385131836 91.34901428222656 -122.4258041381836 
v -31.759565353393555 91.34901428222656 -139.10459899902344 
v -7.590964317321777 69.08515930175781 -165.15184020996094 
v 25.536882400512695 69.08515930175781 -171.2996368408203 
v 59.40230178833008 69.08515930175781 -170.7451934814453 
v 92.2081527709961 69.08515930175781 -163.69444274902344 
v 123.21784973144531 69.08516693115234 -150.44189453125 
v 150.81101989746094 68.97494506835938 -131.20823669433594 
v 174.0153045654297 68.86474609375 -106.98027038574219 
v 192.03509521484375 68.53408813476562 -78.75952911376953 
v 204.26629638671875 68.31365966796875 -47.385562896728516 
v 210.23731994628906 68.20344543457031 -14.242958068847656 
v 209.84487915039062 68.31367492675781 19.43094253540039 
v 202.98565673828125 68.53411102294922 52.3987922668457 
v 189.89511108398438 68.86477661132812 83.21697998046875 
v 171.0297393798828 68.97498321533203 110.95738983154297 
v 147.00804138183594 69.08521270751953 134.5004425048828 
v 118.62530517578125 69.08521270751953 152.71173095703125 
v 87.44285583496094 69.08521270751953 165.10494995117188 
v 54.138248443603516 69.08521270751953 171.2675018310547 
v 20.449588775634766 69.08521270751953 170.69830322265625 
v -12.3562593460083 69.08521270751953 163.64755249023438 
v -43.365962982177734 69.08521270751953 150.39500427246094 
v -69.89855194091797 69.085205078125 131.0727996826172 
v -90.80490112304688 69.085205078125 106.6529769897461 
v -105.9964828491211 69.08519744873047 78.19610595703125 
v -115.92976379394531 69.08518981933594 46.630279541015625 
v -121.1937484741211 69.08518981933594 13.428640365600586 
v -121.68511962890625 69.0851821899414 -20.17146873474121 
v -116.94705200195312 69.08517456054688 -52.962223052978516 
v -106.6847152709961 69.08517456054688 -83.54427337646484 
v -90.11726379394531 69.08516693115234 -111.09282684326172 
v -67.15615844726562 69.08516693115234 -134.54733276367188 
v -38.77341079711914 69.08515930175781 -152.75863647460938 
v -11.835626602172852 41.20024490356445 -179.7490692138672 
v 24.26767921447754 41.20024490356445 -186.50128173828125 
v 60.99082565307617 41.20024490356445 -185.82943725585938 
v 96.87544250488281 41.20024490356445 -178.14576721191406 
v 130.47789001464844 41.20024871826172 -163.6857147216797 
v 160.69334411621094 41.200252532958984 -142.89105224609375 
v 186.21063232421875 41.20025634765625 -116.54224395751953 
v 206.0426483154297 41.20026397705078 -85.80288696289062 
v 219.57057189941406 41.20026779174805 -51.68925476074219 
v 226.32278442382812 41.20027542114258 -15.585948944091797 
v 225.65093994140625 41.200279235839844 21.13719940185547 
v 217.96726989746094 41.200286865234375 57.021812438964844 
v 203.50721740722656 41.20029067993164 90.62425994873047 
v 182.71255493164062 41.200294494628906 120.8396987915039 
v 156.36375427246094 41.20029830932617 146.35699462890625 
v 125.63914489746094 41.20030212402344 166.36578369140625 
v 91.5255126953125 41.2003059387207 179.89370727539062 
v 55.40745162963867 41.2003059387207 186.4691619873047 
v 18.699060440063477 41.2003059387207 185.9740753173828 
v -17.1855525970459 41.20030212402344 178.29039001464844 
v -50.80276107788086 41.20029830932617 163.65359497070312 
v -81.01819610595703 41.200294494628906 142.85891723632812 
v -105.65167999267578 41.20029067993164 116.43633270263672 
v -123.89283752441406 41.200286865234375 85.56414794921875 
v -135.8298797607422 41.200279235839844 51.317691802978516 
v -141.8750457763672 41.20027542114258 15.155352592468262 
v -141.91024780273438 41.20026779174805 -21.50876235961914 
v -135.81744384765625 41.20026397705078 -57.26055145263672 
v -122.94827270507812 41.20025634765625 -90.73017883300781 
v -103.03741455078125 41.200252532958984 -120.87183380126953 
v -76.68861389160156 41.20024871826172 -146.38912963867188 
v -45.949256896972656 41.20024490356445 -166.2211456298828 
v -12.321974754333496 17.944446563720703 -181.31040954589844 
v 24.134857177734375 17.944446563720703 -188.09213256835938 
v 61.21153259277344 17.944446563720703 -187.44981384277344 
v 97.27290344238281 17.944448471069336 -179.78089904785156 
v 131.24363708496094 17.9444522857666 -165.17361450195312 
v 161.6653594970703 17.944456100463867 -144.0401611328125 
v 187.5509490966797 17.944459915161133 -117.54412078857422 
v 207.58924865722656 17.94446563720703 -86.46598815917969 
v 221.1466827392578 17.94447135925293 -51.998836517333984 
v 227.9136505126953 17.944477081298828 -15.718769073486328 
v 227.27133178710938 17.944482803344727 21.3579044342041 
v 219.60240173339844 17.944488525390625 57.419281005859375 
v 204.9951171875 17.944494247436523 91.3900146484375 
v 183.86167907714844 17.944499969482422 121.81173706054688 
v 157.36563110351562 17.944503784179688 147.69732666015625 
v 126.2874984741211 17.94450569152832 167.73562622070312 
v 92.0118637084961 17.944507598876953 181.45504760742188 
v 55.54027557373047 17.944507598876953 188.06002807617188 
v 18.47835922241211 17.944507598876953 187.59446716308594 
v -17.597774505615234 17.94450569152832 179.748779296875 
v -51.568511962890625 17.944503784179688 165.14149475097656 
v -81.990234375 17.944499969482422 144.008056640625 
v -107.87581634521484 17.944494247436523 117.51200866699219 
v -127.56058502197266 17.944488525390625 86.40435791015625 
v -140.39620971679688 17.944482803344727 52.054931640625 
v -146.8244171142578 17.944477081298828 15.568585395812988 
v -146.52085876464844 17.94447135925293 -21.301809310913086 
v -139.57374572753906 17.94446563720703 -57.48091506958008 
v -125.31999206542969 17.944459915161133 -91.42213439941406 
v -104.1865463256836 17.944456100463867 -121.84385681152344 
v -77.69049835205078 17.9444522857666 -147.7294464111328 
v -46.61236572265625 17.944448471069336 -167.76773071289062 
v -9.831189155578613 -49.28795623779297 -172.7965850830078 
v 24.872766494750977 -49.28795623779297 -179.25396728515625 
v 60.16705322265625 -49.28795623779297 -178.6408233642578 
v 94.59327697753906 -49.28795623779297 -171.369384765625 
v 126.91411590576172 -49.2879524230957 -157.3363037109375 
v 155.9951934814453 -49.28794860839844 -137.3369140625 
v 180.5401153564453 -49.28794479370117 -111.97489929199219 
v 199.73854064941406 -49.28793716430664 -82.42860412597656 
v 212.79486083984375 -49.287933349609375 -49.69956588745117 
v 219.0754852294922 -49.287925720214844 -14.98084831237793 
v 218.6391143798828 -49.28792190551758 20.298677444458008 
v 211.19090270996094 -49.28791427612305 54.73966598510742 
v 197.15782165527344 -49.28791046142578 87.06050109863281 
v 177.15843200683594 -49.287906646728516 116.1415786743164 
v 151.79641723632812 -49.28790283203125 140.68649291992188 
v 122.2501220703125 -49.287899017333984 159.8849334716797 
v 89.52108001708984 -49.287899017333984 172.94125366210938 
v 54.8023681640625 -49.287899017333984 179.2218780517578 
v 19.522842407226562 -49.287899017333984 178.78549194335938 
v -14.918147087097168 -49.287899017333984 171.3372802734375 
v -47.23898696899414 -49.28790283203125 157.30421447753906 
v -76.32006072998047 -49.287906646728516 137.3048095703125 
v -100.86498260498047 -49.28791046142578 111.94280242919922 
v -120.06341552734375 -49.28791427612305 82.3965072631836 
v -133.11973571777344 -49.28792190551758 49.66746520996094 
v -139.40036010742188 -49.287925720214844 14.948752403259277 
v -138.96397399902344 -49.287933349609375 -20.330774307250977 
v -131.51576232910156 -49.28793716430664 -54.77176284790039 
v -117.48269653320312 -49.28794479370117 -87.09259796142578 
v -97.4832992553711 -49.28794860839844 -116.17366790771484 
v -72.12128448486328 -49.2879524230957 -140.71859741210938 
v -42.574989318847656 -49.28795623779297 -159.91702270507812 
v -6.323432445526123 -49.2879524230957 -160.62977600097656 
v 25.935354232788086 -49.28795623779297 -166.5270233154297 
v 58.72543716430664 -49.2879524230957 -166.06077575683594 
v 90.8094711303711 -49.2879524230957 -159.1277618408203 
v 120.72908020019531 -49.28794860839844 -146.14019775390625 
v 147.73292541503906 -49.28794479370117 -127.5693130493164 
v 170.524658203125 -49.287940979003906 -104.01888275146484 
v 188.3086395263672 -49.28793716430664 -76.49043273925781 
v 200.4512939453125 -49.287933349609375 -46.17704772949219 
v 206.34852600097656 -49.287925720214844 -13.918258666992188 
v 205.88230895996094 -49.28792190551758 18.871824264526367 
v 198.94927978515625 -49.28791809082031 50.95585632324219 
v 185.97647094726562 -49.28791046142578 81.05223083496094 
v 167.3908233642578 -49.287906646728516 107.87931060791016 
v 143.84039306640625 -49.28790283203125 130.67103576660156 
v 116.48871612548828 -49.28790283203125 148.4402618408203 
v 85.99856567382812 -49.287899017333984 160.59767150878906 
v 53.739776611328125 -49.287899017333984 166.4949188232422 
v 20.949695587158203 -49.287899017333984 166.0286865234375 
v -11.134339332580566 -49.28790283203125 159.09567260742188 
v -41.05394744873047 -49.28790283203125 146.10809326171875 
v -68.05779266357422 -49.287906646728516 127.53721618652344 
v -90.83476257324219 -49.28791046142578 104.1635513305664 
v -108.61874389648438 -49.28791809082031 76.63510131835938 
v -120.77615356445312 -49.28792190551758 46.14495086669922 
v -126.67340087890625 -49.287925720214844 13.886162757873535 
v -126.20716857910156 -49.287933349609375 -18.903919219970703 
v -119.2593994140625 -49.28793716430664 -50.81119155883789 
v -106.28658294677734 -49.287940979003906 -80.90756225585938 
v -87.7156982421875 -49.28794479370117 -107.91140747070312 
v -64.16526794433594 -49.28794860839844 -130.703125 
v -36.81358337402344 -49.2879524230957 -148.47235107421875 
vn 0.004342901986092329 -0.0030146162025630474 -0.0003625938843470067 
vn -0.0003462645981926471 -0.0013621827820315957 -0.005109277553856373 
vn 0.00027342437533661723 -0.0007957835914567113 -0.005231837742030621 
vn 0.0002819616929627955 -0.0012949405936524272 -0.005130670964717865 
vn -0.00034068888635374606 -0.0019339193822816014 -0.0049217939376831055 
vn -0.0008959349361248314 -0.0019339193822816014 -0.004851538222283125 
vn -0.0009606226230971515 -0.002541888505220413 -0.004549305886030197 
vn -0.0014366729883477092 -0.0025011596735566854 -0.00444526132196188 
vn -0.0015703901881352067 -0.0031278193928301334 -0.003978794906288385 
vn -0.0019507633987814188 -0.003033630084246397 -0.0038822409696877003 
vn -0.002174471039324999 -0.0036600837484002113 -0.0031552594155073166 
vn -0.0023903546389192343 -0.003558377269655466 -0.0031151811126619577 
vn -0.0026132562197744846 -0.00405602203682065 -0.0021908420603722334 
vn -0.002774242078885436 -0.003980559296905994 -0.0021304781548678875 
vn -0.0028773932717740536 -0.004311410244554281 -0.001101166708394885 
vn -0.00294582755304873 -0.00428432272747159 -0.001023179735057056 
vn -0.0028989340644329786 -0.004429200664162636 0.00024203640350606292 
vn -0.0029548057354986668 -0.004390689544379711 0.0002668149827513844 
vn -0.002654952695593238 -0.004311409778892994 0.00156307069119066 
vn -0.002735371934249997 -0.004284322261810303 0.0014975116355344653 
vn -0.002382542472332716 -0.00398055836558342 0.002561026019975543 
vn -0.0018406800227239728 -0.003558376105502248 0.003468436887487769 
vn -0.001621139352209866 -0.003660082584246993 0.0034721610136330128 
vn -0.0008888580487109721 -0.0031278179958462715 0.004184121731668711 
vn -0.0012799761025235057 -0.0030336289200931787 0.004151980392634869 
vn -0.00019292677461635321 -0.0025418868754059076 0.0046456181444227695 
vn -0.0006796395755372941 -0.0025011582765728235 0.004621955566108227 
vn 0.0004801922768820077 -0.0019339177524670959 0.004910147283226252 
vn -0.00007901657954789698 -0.0019339177524670959 0.004932939074933529 
vn 0.0011288595851510763 -0.0012949389638379216 0.005012880079448223 
vn 0.0005057835951447487 -0.0013621811522170901 0.0050959596410393715 
vn -0.0022137754131108522 -0.0040560211054980755 0.00259385840035975 
vn 0.0017073230119422078 -0.0006351963966153562 0.004976116120815277 
vn 0.0011372165754437447 -0.0007957819034345448 0.0051140617579221725 
vn 0.001765963388606906 -0.00021989668312016875 0.004991309717297554 
vn 0.0023377262987196445 0.0003586097445804626 0.004742003045976162 
vn 0.0027547802310436964 0.0006351979682222009 0.004481948912143707 
vn 0.003205127315595746 0.0012049401411786675 0.004044185858219862 
vn 0.0029333082493394613 0.000910040398593992 0.004318296909332275 
vn 0.0035903628449887037 0.00173846329562366 0.003488152287900448 
vn 0.0034606310073286295 0.0014291906263679266 0.0037498814053833485 
vn 0.003936458844691515 0.0022108869161456823 0.002774246037006378 
vn 0.003960085567086935 0.0018907323246821761 0.0029703574255108833 
vn 0.004191091749817133 0.0026428536511957645 0.0018788964953273535 
vn 0.00433077197521925 0.0022947138641029596 0.0020146651659160852 
vn 0.002284797141328454 0.000011577676559682004 0.0047811842523515224 
vn 0.004339070525020361 0.0029379925690591335 0.000787940516602248 
vn 0.004571849945932627 0.0025418878067284822 0.0008468574960716069 
vn 0.004577059298753738 0.002642853418365121 -0.00038214490632526577 
vn 0.004368120804429054 0.0025418875738978386 -0.0015932677779346704 
vn 0.004148334264755249 0.0029379921033978462 -0.0014965656446292996 
vn 0.0038214947562664747 0.0026428529527038336 -0.0025478783063590527 
vn 0.003936727065593004 0.0022947131656110287 -0.002704929793253541 
vn 0.003421914530918002 0.0022108859848231077 -0.003388606710359454 
vn 0.0034126935061067343 0.0018907312769442797 -0.0035859206691384315 
vn 0.002790888072922826 0.0014291893457993865 -0.004271829035133123 
vn 0.0029622255824506283 0.00173846201505512 -0.004035236779600382 
vn 0.0024901186116039753 0.0012049387441948056 -0.004519689362496138 
vn 0.002176607958972454 0.0009100389434024692 -0.004744930192828178 
vn 0.0015190100530162454 0.00035860814386978745 -0.005064006894826889 
vn 0.0009138216846622527 -0.00021989835659042 -0.00521504832431674 
vn 0.000858512707054615 -0.0006351980264298618 -0.005190340802073479 
vn 0.004329734481871128 0.003033629385754466 -0.0003614954766817391 
vn 0.0014603164745494723 0.000011576062206586357 -0.005093868356198072 
vn 0.001973413862287998 0.0006351964548230171 -0.004876711871474981 
vn 0.0011663864133879542 0.0015624572988599539 -0.004927315283566713 
vn 0.0010454729199409485 0.0007041002972982824 -0.005146978422999382 
vn 0.0009531787363812327 -0.00021989835659042 -0.005207998678088188 
vn 0.0008852336322888732 -0.0011598003329709172 -0.005094250198453665 
vn 0.0008404452819377184 -0.0020838885102421045 -0.0047990866005420685 
vn 0.0008102711290121078 -0.002957233926281333 -0.004321852698922157 
vn 0.0007132185273803771 -0.003726494964212179 -0.0036992912646383047 
vn 0.0006005694158375263 -0.0043906900100409985 -0.0029054053593426943 
vn 0.000527904077898711 -0.004849077668040991 -0.0020707473158836365 
vn 0.000489462458062917 -0.005135580897331238 -0.0012109827948734164 
vn 0.0005527482135221362 -0.005269970279186964 -0.00004614878344000317 
vn 0.0006834990927018225 -0.0051355804316699505 0.0011130524799227715 
vn 0.0008639803272671998 -0.0048490772023797035 0.0019545387476682663 
vn 0.0010740479920059443 -0.004390689078718424 0.0027655907906591892 
vn 0.001316784881055355 -0.003726493800058961 0.003529804991558194 
vn 0.001515730982646346 -0.002957232529297471 0.00412765285000205 
vn 0.0016246254090219736 -0.002083886880427599 0.004593275021761656 
vn 0.0017177396221086383 -0.0011597987031564116 0.004876924678683281 
vn 0.001803606515750289 -0.00021989668312016875 0.0049778311513364315 
vn 0.001884504104964435 0.000704101927112788 0.004902350716292858 
vn 0.0019673174247145653 0.0015624588122591376 0.004665677901357412 
vn 0.0020331968553364277 0.0023985092993825674 0.004265376832336187 
vn 0.0021008439362049103 0.0031278193928301334 0.0037260418757796288 
vn 0.002157263457775116 0.003759274957701564 0.0030486504547297955 
vn 0.0021861072164028883 0.004338168539106846 0.002116942312568426 
vn 0.002136864000931382 0.004751106258481741 0.0009700686205178499 
vn 0.002087260829284787 0.004867566749453545 -0.00017426884733140469 
vn 0.0019464156357571483 0.004751105792820454 -0.0013109883293509483 
vn 0.0018047949997708201 0.0043381680734455585 -0.0024501492734998465 
vn 0.0016218485543504357 0.0037592740263789892 -0.0033641743939369917 
vn 0.001453880686312914 0.0031278179958462715 -0.004022831097245216 
vn 0.0012977342121303082 0.0023985079023987055 -0.004543480928987265 
vn 0.00048348947893828154 0.002582421526312828 -0.004601903725415468 
vn 0.0007018189062364399 0.0017821394139900804 -0.004940809216350317 
vn 0.0010154719930142164 0.0006581770721822977 -0.005159047897905111 
vn 0.001279495656490326 -0.000704101927112788 -0.005093847867101431 
vn 0.0014874791959300637 -0.001976958243176341 -0.00468606548383832 
vn 0.0015822378918528557 -0.003033630084246397 -0.004046455025672913 
vn 0.0016187891596928239 -0.003807906061410904 -0.0033105253241956234 
vn 0.00164779182523489 -0.004364595748484135 -0.0025130268186330795 
vn 0.0016283470904454589 -0.004730417393147945 -0.0017469594022259116 
vn 0.0016484842635691166 -0.004937793128192425 -0.000990422093309462 
vn 0.0016997004859149456 -0.0050170826725661755 -0.00014190931688062847 
vn 0.0017898993100970984 -0.004937793128192425 0.0007033486617729068 
vn 0.0019195687491446733 -0.004730416927486658 0.0014207890490069985 
vn 0.0020159538835287094 -0.004377684090286493 0.002202733187004924 
vn 0.0021453499794006348 -0.0038079051300883293 0.0029962537810206413 
vn 0.002231341553851962 -0.0030336289200931787 0.0037280553951859474 
vn 0.0022688487078994513 -0.0019984201062470675 0.0043518743477761745 
vn 0.002134603215381503 -0.0007270419737324119 0.0047953142784535885 
vn 0.0019039155449718237 0.0006122052436694503 0.004907185211777687 
vn 0.0015599877806380391 0.0017603191081434488 0.004748460836708546 
vn 0.0012783955316990614 0.00258242292329669 0.00444713095203042 
vn 0.0010479142656549811 0.0032388721592724323 0.004061006475239992 
vn 0.0008537162211723626 0.003855882678180933 0.0035332057159394026 
vn 0.0006623116787523031 0.004377685021609068 0.0029116044752299786 
vn 0.00049439916620031 0.004839694127440453 0.0021007524337619543 
vn 0.00038398848846554756 0.005178091581910849 0.0010583791881799698 
vn 0.00025371002266183496 0.005292960442602634 -0.00002118343581969384 
vn 0.00020316458540037274 0.005178091116249561 -0.001107403077185154 
vn 0.00013919344928581268 0.004839693661779165 -0.0021536536514759064 
vn 0.00017032040341291577 0.004377684090286493 -0.0029811232816427946 
vn 0.0002161537267966196 0.0038558815140277147 -0.0036284513771533966 
vn 0.0003201270883437246 0.0032388707622885704 -0.004181796684861183 
vn -0.0002791697916109115 0.0032388707622885704 -0.004184730350971222 
vn 0.00026015515322797 0.0027028294280171394 -0.004550517536699772 
vn 0.0009215350728482008 0.001890731044113636 -0.004863751586526632 
vn 0.0015307861613109708 0.0007957819616422057 -0.005010347347706556 
vn 0.0020899460650980473 -0.0003355056687723845 -0.004857954103499651 
vn 0.0026150685735046864 -0.0013397939037531614 -0.004409821704030037 
vn 0.003033105283975601 -0.0022108869161456823 -0.003740644780918956 
vn 0.0033518399577587843 -0.002860471373423934 -0.002943306928500533 
vn 0.0035242352169007063 -0.0033656146842986345 -0.0020814891904592514 
vn 0.003632892156019807 -0.003660083282738924 -0.0012190508423373103 
vn 0.0037345518358051777 -0.0037429200019687414 -0.00035195532836951315 
vn 0.0037964575458317995 -0.0036600830499082804 0.0005204831250011921 
vn 0.003832878079265356 -0.0033834660425782204 0.0013933400623500347 
vn 0.0038053025491535664 -0.0028993417508900166 0.0022789633367210627 
vn 0.003651144914329052 -0.0022738208062946796 0.0030950044747442007 
vn 0.0033756429329514503 -0.00140687997918576 0.0038348252419382334 
vn 0.00295834569260478 -0.00040479525341652334 0.004377725999802351 
vn 0.0024295991752296686 0.0007270435453392565 0.004652807023376226 
vn 0.0017739244503900409 0.0018474012613296509 0.004639015533030033 
vn 0.001070423168130219 0.002682889811694622 0.004442575387656689 
vn 0.0004186348232906312 0.0032388721592724323 0.004173085559159517 
vn -0.0001698746345937252 0.0036600837484002113 0.003828201675787568 
vn -0.0007729418575763702 0.004010974429547787 0.003375626401975751 
vn -0.0013408804079517722 0.004243078641593456 0.0028772451914846897 
vn -0.0018557599978521466 0.004429201129823923 0.002240212634205818 
vn -0.002285108668729663 0.0045638494193553925 0.0014247035142034292 
vn -0.0025121287908405066 0.0046440656296908855 0.0004495479224715382 
vn -0.002492174506187439 0.004632870201021433 -0.0006370309856720269 
vn -0.0022281219717115164 0.004516089800745249 -0.0016494330484420061 
vn -0.001832789508625865 0.004311409313231707 -0.0024764586705714464 
vn -0.0013009845279157162 0.004041082225739956 -0.003171325195580721 
vn -0.0007915954920463264 0.003676790976896882 -0.003732932498678565 
vn -0.0015369823668152094 0.0030336289200931787 -0.004063861444592476 
vn -0.0024490817449986935 0.0032571651972830296 -0.0033871911000460386 
vn -0.0032308208756148815 0.0033476981334388256 -0.0025367119815200567 
vn -0.003850331297144294 0.0032753979321569204 -0.0015896251425147057 
vn -0.004261638969182968 0.0030714813619852066 -0.0006961481994949281 
vn -0.00444760313257575 0.002879933686926961 0.00007064193050609902 
vn -0.004446905571967363 0.002782075433060527 0.000751843792386353 
vn -0.004258288536220789 0.00284095318056643 0.0013697242829948664 
vn -0.003932437859475613 0.003014616435393691 0.001878351904451847 
vn -0.003429780248552561 0.003202097723260522 0.0024623905774205923 
vn -0.002739685820415616 0.003311675041913986 0.0030995355919003487 
vn -0.001871215645223856 0.003275398863479495 0.003721626941114664 
vn -0.000882733438629657 0.0030714822933077812 0.00422693369910121 
vn 0.00017963265418075025 0.002702831057831645 0.004554406274110079 
vn 0.0012555366847664118 0.0022319082636386156 0.004639222286641598 
vn 0.002251106547191739 0.001782141043804586 0.004453836474567652 
vn 0.00322766718454659 0.001406881376169622 0.003960177768021822 
vn 0.004032197408378124 0.0010919253109022975 0.003260251833125949 
vn 0.004666581284254789 0.0008643863839097321 0.0023571194615215063 
vn 0.005048499908298254 0.0007499708444811404 0.001424904097802937 
vn 0.005207803100347519 0.000772884173784405 0.0006013285601511598 
vn 0.005242403596639633 0.0007728841155767441 0.0000030373589652299415 
vn 0.005217332858592272 0.0007957827183417976 -0.00047573752817697823 
vn 0.005159040912985802 0.0007957826601341367 -0.0009116945439018309 
vn 0.005005739629268646 0.0008186660124920309 -0.0015337909571826458 
vn 0.004710526671260595 0.0008415338234044611 -0.0022766024339944124 
vn 0.004140602424740791 0.0009783883579075336 -0.0031588489655405283 
vn 0.003336806083098054 0.0012274745386093855 -0.0039292736910283566 
vn 0.002360774902626872 0.0015624572988599539 -0.004479467868804932 
vn 0.0013494130689650774 0.001890731044113636 -0.0047628129832446575 
vn 0.0003909388033207506 0.0022947126999497414 -0.0047604236751794815 
vn -0.0005780960782431066 0.0027028294280171394 -0.004521138966083527 
vn -0.0010518181370571256 0.0026628959458321333 -0.004459017887711525 
vn -7.495058298445656e-7 0.0026828881818801165 -0.004569714423269033 
vn 0.0010035875020548701 0.0027623423375189304 -0.004409360233694315 
vn 0.0019312910735607147 0.0028604702092707157 -0.004020946100354195 
vn 0.002758847316727042 0.0029572327621281147 -0.0034239916130900383 
vn 0.00338491122238338 0.0030525841284543276 -0.002702645491808653 
vn 0.0037945364601910114 0.0031836184207350016 -0.0018831501947715878 
vn 0.003968407865613699 0.0033116743434220552 -0.0011682220501825213 
vn 0.004010276403278112 0.003401253605261445 -0.0006552475388161838 
vn 0.004019591957330704 0.0034366329200565815 -0.00033560136216692626 
vn 0.004063029773533344 0.0034012538380920887 -0.00005878933006897569 
vn 0.0041265166364610195 0.0032935680355876684 0.0004521748051047325 
vn 0.004083522595465183 0.0031464791391044855 0.0012266619596630335 
vn 0.003831766312941909 0.0029955462086945772 0.00210343929938972 
vn 0.0033436003141105175 0.002860471373423934 0.002952663926407695 
vn 0.002642811508849263 0.002782075898721814 0.0036545563489198685 
vn 0.001790921320207417 0.002682889811694622 0.004204150289297104 
vn 0.0008170096552930772 0.002662897342815995 0.004507954232394695 
vn -0.00031020824098959565 0.002722720615565777 0.004535498097538948 
vn -0.0015073089161887765 0.0028604716062545776 0.004198321606963873 
vn -0.002583575202152133 0.002995546441525221 0.003525907639414072 
vn -0.003412391059100628 0.0030336298514157534 0.0026893983595073223 
vn -0.003932437859475613 0.003014616435393691 0.001878351904451847 
vn -0.004230803810060024 0.002918695332482457 0.0012890697689726949 
vn -0.004372172523289919 0.0028409529477357864 0.000945132807828486 
vn -0.004453393630683422 0.002782075433060527 0.0007124061230570078 
vn -0.00449599651619792 0.002782075433060527 0.0003553225251380354 
vn -0.004482458345592022 0.002821380505338311 -0.00016600903472863138 
vn -0.004325068090111017 0.002879933686926961 -0.0010392063995823264 
vn -0.00391111196950078 0.0028799334540963173 -0.0021188133396208286 
vn -0.003170941025018692 0.002821380039677024 -0.0031725584995001554 
vn -0.002173589076846838 0.002722719218581915 -0.003992804791778326 
vn -0.0013836872531101108 0.0015845666639506817 -0.00486361188814044 
vn -0.00030489565688185394 0.0018039275892078876 -0.004973233677446842 
vn 0.000751705898437649 0.0021051550284028053 -0.004804521799087524 
vn 0.001717266859486699 0.0024397082161158323 -0.004379382822662592 
vn 0.0025680724065750837 0.0028017540462315083 -0.0036926085595041513 
vn 0.0031064231880009174 0.0031650785822421312 -0.0029004483949393034 
vn 0.003427967894822359 0.00347174983471632 -0.0020678937435150146 
vn 0.0035103990230709314 0.0037429200019687414 -0.0013220631517469883 
vn 0.0035083673428744078 0.003903196193277836 -0.0007325472543016076 
vn 0.00350307859480381 0.0039652371779084206 -0.0002924771106336266 
vn 0.003581269411370158 0.003903196193277836 0.00014062323316466063 
vn 0.0036810303572565317 0.003742920234799385 0.000721640361007303 
vn 0.0037234192714095116 0.0034717503003776073 0.001470814342610538 
vn 0.0035443860106170177 0.003165079280734062 0.002345162909477949 
vn 0.0031448500230908394 0.0028017552103847265 0.0032156286761164665 
vn 0.00245391926728189 0.0024397096130996943 0.004013261757791042 
vn 0.001556979026645422 0.0020838885102421045 0.00461664330214262 
vn 0.0005240199388936162 0.0018039292190223932 0.004954937845468521 
vn -0.0005787926493212581 0.0016286958707496524 0.005009242799133062 
vn -0.0017529574688524008 0.001650713267736137 0.004720428958535194 
vn -0.0028828156646341085 0.001869084546342492 0.004034360405057669 
vn -0.003726487746462226 0.0021898236591368914 0.0030656373128294945 
vn -0.004168255720287561 0.002501159207895398 0.002109508030116558 
vn -0.004344932269304991 0.0027227201499044895 0.0013373635010793805 
vn -0.004400779027491808 0.002821380738168955 0.0008678343147039413 
vn -0.0044514210894703865 0.002821380738168955 0.0005521260318346322 
vn -0.004554406739771366 0.0027028301265090704 0.00017963224672712386 
vn -0.004660990089178085 0.0024807227309793234 -0.0004487297555897385 
vn -0.004634818993508816 0.0021687177941203117 -0.0013766948832198977 
vn -0.004267639946192503 0.0018473999807611108 -0.00254057627171278 
vn -0.003488754155114293 0.0016066459938883781 -0.003650677390396595 
vn -0.0024812642950564623 0.0014959517866373062 -0.0044368477538228035 
vn -0.0013564439723268151 0.0018473997479304671 -0.004777796566486359 
vn -0.0003499827580526471 0.001955455867573619 -0.004912623669952154 
vn 0.000623188097961247 0.0021263831295073032 -0.004813553765416145 
vn 0.0015918323770165443 0.0023571245837956667 -0.004471041262149811 
vn 0.002392994472756982 0.00268288841471076 -0.0038930533919483423 
vn 0.002979703713208437 0.0030525841284543276 -0.003143768757581711 
vn 0.003336631692945957 0.0033834660425782204 -0.0023450455628335476 
vn 0.003503992920741439 0.0036433045752346516 -0.0015901454025879502 
vn 0.0035743550397455692 0.003807905362918973 -0.0008966873865574598 
vn 0.0036222804337739944 0.0038558822125196457 -0.0003024293982889503 
vn 0.003673562314361334 0.0038079055957496166 0.00029154837829992175 
vn 0.003719168249517679 0.003643305040895939 0.0009870734065771103 
vn 0.003679306712001562 0.0033834667410701513 0.001759274979121983 
vn 0.0034597699996083975 0.003052585059776902 0.0026061278767883778 
vn 0.0030054349917918444 0.0026828895788639784 0.0034423309843987226 
vn 0.002311210846528411 0.0023571259807795286 0.004145170096307993 
vn 0.0014127751346677542 0.002126384759321809 0.004643567837774754 
vn 0.00046950633986853063 0.0019554574973881245 0.004902644082903862 
vn -0.0005453783087432384 0.0018474012613296509 0.00493658147752285 
vn -0.0015692050801590085 0.001869084662757814 0.004703646060079336 
vn -0.002590503077954054 0.002083888277411461 0.004126363433897495 
vn -0.003412154270336032 0.0024397093802690506 0.003238085424527526 
vn -0.0038893769960850477 0.0027820756658911705 0.002283195499330759 
vn -0.004088076762855053 0.0030336296185851097 0.0014713617274537683 
vn -0.004160506185144186 0.0031650790479034185 0.0008675541030243039 
vn -0.00422785896807909 0.003165078815072775 0.0004332128446549177 
vn -0.0043311030603945255 0.003052584594115615 -0.0000588171933486592 
vn -0.004407595843076706 0.002840952714905143 -0.0007630648906342685 
vn -0.004342526663094759 0.0025215470232069492 -0.001692465040832758 
vn -0.003969748970121145 0.0021898227278143167 -0.0027433449868112803 
vn -0.0032193902879953384 0.0019554561004042625 -0.0037271820474416018 
vn -0.002337039913982153 0.0018256811890751123 -0.004391503054648638 
vn -0.001249384367838502 0.0027623423375189304 -0.004346111323684454 
vn -0.00036528307828120887 0.0027820745017379522 -0.004495198372751474 
vn 0.0005334580200724304 0.0028017540462315083 -0.004466069862246513 
vn 0.0013929292326793075 0.0028409522492438555 -0.004250755533576012 
vn 0.0021811737678945065 0.0029379918705672026 -0.0038328671362251043 
vn 0.0028616786003112793 0.0030525841284543276 -0.003251570975407958 
vn 0.0033585054334253073 0.003202097024768591 -0.0025587505660951138 
vn 0.0037062466144561768 0.0033116743434220552 -0.001837590942159295 
vn 0.0039161075837910175 0.003401253605261445 -0.0010843296768143773 
vn 0.004034517798572779 0.0034189759753644466 -0.0003368475299794227 
vn 0.004041699226945639 0.0034012538380920887 0.0004199212708044797 
vn 0.003959654830396175 0.0033116748090833426 0.0011975540546700358 
vn 0.0037363155279308558 0.003202097723260522 0.001966394018381834 
vn 0.0033612551633268595 0.003052585059776902 0.002732009394094348 
vn 0.0027865665033459663 0.002937993034720421 0.003418103326112032 
vn 0.0020785322412848473 0.0028409536462277174 0.003960917703807354 
vn 0.0012666652910411358 0.00280175544321537 0.004315773956477642 
vn 0.0003851976653095335 0.002782076131552458 0.004493535030633211 
vn -0.0005113857914693654 0.0027623437345027924 0.004493119660764933 
vn -0.0013898914912715554 0.002782076131552458 0.004290505312383175 
vn -0.0022139260545372963 0.0028409534133970737 0.0038868619594722986 
vn -0.0029700256418436766 0.002976418472826481 0.003224913263693452 
vn -0.003506169654428959 0.003165079280734062 0.0024019237607717514 
vn -0.0037915909197181463 0.00332971871830523 0.0016177162760868669 
vn -0.003925554919987917 0.003436633152887225 0.0009272362804040313 
vn -0.00400458974763751 0.0034542244393378496 0.00033434771467000246 
vn -0.004056318197399378 0.003401253605261445 -0.00024073348322417587 
vn -0.004057328682392836 0.003275398164987564 -0.0009434215608052909 
vn -0.0038695200346410275 0.003127818461507559 -0.0018231169087812304 
vn -0.003479714272543788 0.0029572327621281147 -0.002688223961740732 
vn -0.0028278192039579153 0.0028409522492438555 -0.0034659213852137327 
vn -0.0020821283105760813 0.002782074734568596 -0.004000622779130936 
vn -0.0014049316523596644 0.0014737255405634642 -0.004892285913228989 
vn -0.0004234986554365605 0.0014737255405634642 -0.005072370637208223 
vn 0.0005742092034779489 0.0014737255405634642 -0.005057527218014002 
vn 0.0015498503344133496 0.0014737255405634642 -0.0048483251594007015 
vn 0.0024659319315105677 0.001473725656978786 -0.004452805500477552 
vn 0.0032872487790882587 0.0014737257733941078 -0.0038861664943397045 
vn 0.0039748274721205235 0.0014959521358832717 -0.0031690748874098063 
vn 0.004510281607508659 0.0015181498602032661 -0.0023308240342885256 
vn 0.004872262943536043 0.0015403187135234475 -0.0014030805323272943 
vn 0.005045929457992315 0.0015624579973518848 -0.00042129127541556954 
vn 0.005037473980337381 0.001540319062769413 0.0005757036269642413 
vn 0.004834349267184734 0.0015181504422798753 0.0015506284544244409 
vn 0.004445312544703484 0.0014959530672058463 0.002466066274791956 
vn 0.003886166261509061 0.001473726937547326 0.003287248546257615 
vn 0.003170184325426817 0.001473727053962648 0.003982238471508026 
vn 0.0023323737550526857 0.0014737271703779697 0.004524192772805691 
vn 0.0014049316523596644 0.0014737271703779697 0.004892285447567701 
vn 0.0004234985972288996 0.0014737271703779697 0.005072370171546936 
vn -0.0005742092034779489 0.0014737271703779697 0.0050575267523527145 
vn -0.0015498504508286715 0.0014737271703779697 0.004848324693739414 
vn -0.0024748011492192745 0.0014959531836211681 0.004440455697476864 
vn -0.0033156557474285364 0.001562458579428494 0.0038269194774329662 
vn -0.004016832914203405 0.0017165744211524725 0.0029997648671269417 
vn -0.0044720955193042755 0.0019339188002049923 0.0020833841990679502 
vn -0.004723838064819574 0.0020838878117501736 0.0011928677558898926 
vn -0.004825887270271778 0.0021475714165717363 0.00042298741755075753 
vn -0.004856245592236519 0.00208388757891953 -0.0003930151870008558 
vn -0.004755659494549036 0.0019339182181283832 -0.0013129479484632611 
vn -0.00445866072550416 0.0017165734898298979 -0.0022921357303857803 
vn -0.0039043554570525885 0.0015624574152752757 -0.003224112093448639 
vn -0.0031768828630447388 0.001495951903052628 -0.003968589939177036 
vn -0.0023323737550526857 0.0014737255405634642 -0.004524193704128265 
vn -0.0014620437286794186 -0.00015048003115225583 -0.0050911628641188145 
vn -0.00044071432785131037 -0.00015048004570417106 -0.005278568249195814 
vn 0.000597551406826824 -0.00015048003115225583 -0.005263121332973242 
vn 0.0016128537245094776 -0.00015047998749651015 -0.0050454153679311275 
vn 0.0025661748368293047 -0.00015047990018501878 -0.0046338168904185295 
vn 0.003420879365876317 -0.00015047979832161218 -0.004044143483042717 
vn 0.004144121427088976 -0.00015047966735437512 -0.00329905585385859 
vn 0.004708107095211744 -0.00015047952183522284 -0.002427187515422702 
vn 0.0050911628641188145 -0.00015047936176415533 -0.0014620437286794186 
vn 0.005278568249195814 -0.0001504791871411726 -0.0004407142987474799 
vn 0.005263121332973242 -0.00015047902707010508 0.0005975514650344849 
vn 0.0050454153679311275 -0.00015047885244712234 0.0016128537245094776 
vn 0.0046338168904185295 -0.00015047870692797005 0.0025661748368293047 
vn 0.004044143483042717 -0.000150478575960733 0.003420879365876317 
vn 0.0032990560866892338 -0.0001504784740973264 0.004144121427088976 
vn 0.002427187515422702 -0.00015047838678583503 0.004708107095211744 
vn 0.0014620437286794186 -0.00015047834313008934 0.0050911628641188145 
vn 0.00044071432785131037 -0.00015047832857817411 0.005278568249195814 
vn -0.000597551406826824 -0.00015047834313008934 0.005263121332973242 
vn -0.0016128536080941558 -0.00015047838678583503 0.0050454153679311275 
vn -0.0025661748368293047 -0.0001504784740973264 0.0046338168904185295 
vn -0.003420879365876317 -0.000150478575960733 0.004044143483042717 
vn -0.004170350264757872 -0.00005788276394014247 0.0032687894999980927 
vn -0.00474558724090457 0.0000810353085398674 0.0023564777802675962 
vn -0.005111199337989092 0.00019676184456329793 0.001384587143547833 
vn -0.00527676846832037 0.0002430291788186878 0.000420482421759516 
vn -0.005270035937428474 0.0001967615244211629 -0.0005178448045626283 
vn -0.005070650950074196 0.00008103466825559735 -0.0015369077445939183 
vn -0.004654663614928722 -0.00005788371345261112 -0.0025319778360426426 
vn -0.004044143483042717 -0.00015047979832161218 -0.003420879365876317 
vn -0.0032990560866892338 -0.00015047990018501878 -0.004144121427088976 
vn -0.002427187515422702 -0.00015047998749651015 -0.004708107095211744 
vn -0.0010082427179440856 -0.003871727967634797 -0.0034746762830764055 
vn -0.000301024061627686 -0.003871727967634797 -0.003605455858632922 
vn 0.0004180898249614984 -0.003871727967634797 -0.0035937626380473375 
vn 0.0010825608624145389 -0.003871727967634797 -0.0034522442147135735 
vn 0.0017440322553738952 -0.003871727967634797 -0.0031699021346867085 
vn 0.002336586592718959 -0.0038717277348041534 -0.00276229833252728 
vn 0.002836808329448104 -0.0038717277348041534 -0.002245539566501975 
vn 0.0032065915875136852 -0.0038717277348041534 -0.0016756189288571477 
vn 0.0034746769815683365 -0.00387172750197351 -0.0010082421358674765 
vn 0.003605456557124853 -0.00387172750197351 -0.0003010234795510769 
vn 0.0035937633365392685 -0.003871727269142866 0.00041809037793427706 
vn 0.003440058557316661 -0.003871727269142866 0.0011206830386072397 
vn 0.0031699026003479958 -0.0038717270363122225 0.0017440328374505043 
vn 0.002762299031019211 -0.0038717270363122225 0.002336587058380246 
vn 0.002245540264993906 -0.0038717270363122225 0.002836808795109391 
vn 0.0016756196273490787 -0.003871726803481579 0.003206592286005616 
vn 0.0010082428343594074 -0.003871726803481579 0.003474677447229624 
vn 0.00030102417804300785 -0.003871726803481579 0.0036054570227861404 
vn -0.00041808970854617655 -0.003871726803481579 0.003593763802200556 
vn -0.0011206823401153088 -0.003871726803481579 0.003440059022977948 
vn -0.0017440321389585733 -0.0038717270363122225 0.0031699032988399267 
vn -0.002336586359888315 -0.0038717270363122225 0.002762299496680498 
vn -0.0028368080966174603 -0.0038717270363122225 0.0022455407306551933 
vn -0.003224930725991726 -0.003871727269142866 0.0016400471795350313 
vn -0.003502523759379983 -0.003855881979689002 0.0009719599620439112 
vn -0.0036406463477760553 -0.0038399631157517433 0.00028387203929014504 
vn -0.0036152079701423645 -0.0038558822125196457 -0.0003776902740355581 
vn -0.0034522446803748608 -0.0038717277348041534 -0.001082560163922608 
vn -0.0031699026003479958 -0.0038717277348041534 -0.0017440315568819642 
vn -0.002762298798188567 -0.0038717277348041534 -0.002336585894227028 
vn -0.0022455400321632624 -0.003871727967634797 -0.002836807630956173 
vn -0.0016756195109337568 -0.003871727967634797 -0.003206591121852398 
vn 0.0011138597037643194 -0.0034189752768725157 0.0038923153188079596 
vn 0.00032686584745533764 -0.0034189752768725157 0.0040353392250835896 
vn -0.00047288736095651984 -0.0034189752768725157 0.0040208431892097 
vn -0.001216031494550407 -0.0034189755097031593 0.0038616147357970476 
vn -0.00195151602383703 -0.0034189755097031593 0.003547166008502245 
vn -0.002610822906717658 -0.0034189755097031593 0.0030942538287490606 
vn -0.003168215975165367 -0.003418975742533803 0.0025205567944794893 
vn -0.003601938020437956 -0.003418975742533803 0.0018484703032299876 
vn -0.003895058063790202 -0.0034189759753644466 0.0011042284313589334 
vn -0.004036134574562311 -0.0034189759753644466 0.0003168831462971866 
vn -0.004024241119623184 -0.0034189762081950903 -0.0004430350672919303 
vn -0.0038585944566875696 -0.0034189762081950903 -0.0012255798792466521 
vn -0.0035423270892351866 -0.003418976441025734 -0.001960284076631069 
vn -0.003087785327807069 -0.003418976441025734 -0.002618468599393964 
vn -0.0025127113331109285 -0.0034189766738563776 -0.003174440935254097 
vn -0.001839553820900619 -0.0034189766738563776 -0.0036064989399164915 
vn -0.0011331028072163463 -0.0034189766738563776 -0.003886756021529436 
vn -0.0003468260692898184 -0.0034189766738563776 -0.0040336716920137405 
vn 0.0004529890138655901 -0.0034189766738563776 -0.0040231323800981045 
vn 0.0012351216282695532 -0.0034189766738563776 -0.0038555501960217953 
vn 0.0019690413028001785 -0.0034189766738563776 -0.003537466749548912 
vn 0.0026260993909090757 -0.003418976441025734 -0.003081297967582941 
vn 0.003155707148835063 -0.003418976441025734 -0.002536199288442731 
vn 0.0035927491262555122 -0.0034189762081950903 -0.0018662665970623493 
vn 0.0038895474281162024 -0.0034189762081950903 -0.0011234841076657176 
vn 0.004034517798572779 -0.0034189759753644466 -0.00033684642403386533 
vn 0.004021999891847372 -0.0034189759753644466 0.000462940166471526 
vn 0.003852483816444874 -0.003418975742533803 0.0012446558102965355 
vn 0.0035325854551047087 -0.003418975742533803 0.001977786421775818 
vn 0.0031007020734250546 -0.0034189755097031593 0.002603161381557584 
vn 0.0025283859577029943 -0.0034189755097031593 0.0031619719229638577 
vn 0.001857374096289277 -0.0034189755097031593 0.003597354982048273 
s on 
f 1//1 2//2 3//3 
f 2//2 2//2 3//3 
f 3//3 2//2 4//4 
f 2//2 2//2 4//4 
f 4//4 2//2 5//5 
f 2//2 6//6 5//5 
f 5//5 6//6 7//7 
f 6//6 8//8 7//7 
f 7//7 8//8 9//9 
f 8//8 10//10 9//9 
f 9//9 10//10 11//11 
f 10//10 12//12 11//11 
f 11//11 12//12 13//13 
f 12//12 14//14 13//13 
f 13//13 14//14 15//15 
f 14//14 16//16 15//15 
f 15//15 16//16 17//17 
f 16//16 16//16 17//17 
f 17//17 16//16 18//18 
f 16//16 16//16 18//18 
f 18//18 16//16 1//1 
f 16//16 14//14 1//1 
f 1//1 14//14 1//1 
f 14//14 12//12 1//1 
f 1//1 12//12 1//1 
f 12//12 10//10 1//1 
f 1//1 10//10 1//1 
f 10//10 8//8 1//1 
f 1//1 8//8 1//1 
f 8//8 6//6 1//1 
f 1//1 6//6 2//2 
f 6//6 2//2 2//2 
f 2//2 2//2 17//17 
f 2//2 17//17 17//17 
f 17//17 17//17 19//19 
f 17//17 18//18 19//19 
f 19//19 18//18 20//20 
f 18//18 1//1 20//20 
f 20//20 1//1 21//21 
f 1//1 22//22 21//21 
f 21//21 22//22 23//23 
f 22//22 22//22 23//23 
f 23//23 22//22 24//24 
f 22//22 25//25 24//24 
f 24//24 25//25 26//26 
f 25//25 27//27 26//26 
f 26//26 27//27 28//28 
f 27//27 29//29 28//28 
f 28//28 29//29 30//30 
f 29//29 29//29 30//30 
f 30//30 29//29 31//31 
f 29//29 29//29 31//31 
f 31//31 29//29 1//1 
f 29//29 27//27 1//1 
f 1//1 27//27 1//1 
f 27//27 25//25 1//1 
f 1//1 25//25 22//22 
f 25//25 22//22 22//22 
f 22//22 22//22 19//19 
f 22//22 19//19 19//19 
f 19//19 19//19 32//32 
f 19//19 20//20 32//32 
f 32//32 20//20 32//32 
f 20//20 21//21 32//32 
f 32//32 21//21 23//23 
f 21//21 23//23 23//23 
f 23//23 23//23 30//30 
f 23//23 30//30 30//30 
f 30//30 30//30 33//33 
f 30//30 31//31 33//33 
f 33//33 31//31 34//34 
f 31//31 1//1 34//34 
f 34//34 1//1 35//35 
f 1//1 36//36 35//35 
f 35//35 36//36 37//37 
f 36//36 36//36 37//37 
f 37//37 36//36 38//38 
f 36//36 39//39 38//38 
f 38//38 39//39 40//40 
f 39//39 41//41 40//40 
f 40//40 41//41 42//42 
f 41//41 43//43 42//42 
f 42//42 43//43 44//44 
f 43//43 43//43 44//44 
f 44//44 43//43 45//45 
f 43//43 43//43 45//45 
f 45//45 43//43 1//1 
f 43//43 41//41 1//1 
f 1//1 41//41 1//1 
f 41//41 39//39 1//1 
f 1//1 39//39 36//36 
f 39//39 36//36 36//36 
f 36//36 36//36 33//33 
f 36//36 33//33 33//33 
f 33//33 33//33 46//46 
f 33//33 34//34 46//46 
f 46//46 34//34 46//46 
f 34//34 35//35 46//46 
f 46//46 35//35 37//37 
f 35//35 37//37 37//37 
f 37//37 37//37 44//44 
f 37//37 44//44 44//44 
f 44//44 44//44 47//47 
f 44//44 45//45 47//47 
f 47//47 45//45 48//48 
f 45//45 1//1 48//48 
f 48//48 1//1 49//49 
f 1//1 50//50 49//49 
f 49//49 50//50 51//51 
f 50//50 50//50 51//51 
f 51//51 50//50 52//52 
f 50//50 53//53 52//52 
f 52//52 53//53 54//54 
f 53//53 53//53 54//54 
f 54//54 53//53 55//55 
f 53//53 1//1 55//55 
f 55//55 1//1 55//55 
f 1//1 56//56 55//55 
f 55//55 56//56 57//57 
f 56//56 56//56 57//57 
f 57//57 56//56 58//58 
f 56//56 56//56 58//58 
f 58//58 56//56 59//59 
f 56//56 1//1 59//59 
f 59//59 1//1 60//60 
f 1//1 1//1 60//60 
f 60//60 1//1 61//61 
f 1//1 3//3 61//61 
f 61//61 3//3 62//62 
f 3//3 4//4 62//62 
f 62//62 4//4 4//4 
f 4//4 50//50 4//4 
f 4//4 50//50 50//50 
f 50//50 1//1 50//50 
f 50//50 1//1 53//53 
f 1//1 53//53 53//53 
f 53//53 53//53 55//55 
f 53//53 55//55 55//55 
f 55//55 55//55 54//54 
f 55//55 57//57 54//54 
f 54//54 57//57 57//57 
f 57//57 47//47 57//57 
f 57//57 47//47 47//47 
f 47//47 48//48 47//47 
f 47//47 48//48 63//63 
f 48//48 49//49 63//63 
f 63//63 49//49 51//51 
f 49//49 51//51 51//51 
f 51//51 51//51 62//62 
f 51//51 62//62 62//62 
f 62//62 62//62 61//61 
f 62//62 64//64 61//61 
f 61//61 64//64 60//60 
f 64//64 65//65 60//60 
f 60//60 65//65 59//59 
f 65//65 65//65 59//59 
f 59//59 65//65 58//58 
f 65//65 65//65 58//58 
f 58//58 65//65 66//66 
f 65//65 65//65 66//66 
f 66//66 65//65 67//67 
f 65//65 64//64 67//67 
f 67//67 64//64 68//68 
f 64//64 62//62 68//68 
f 68//68 62//62 69//69 
f 62//62 4//4 69//69 
f 69//69 4//4 70//70 
f 4//4 5//5 70//70 
f 70//70 5//5 71//71 
f 5//5 7//7 71//71 
f 71//71 7//7 72//72 
f 7//7 9//9 72//72 
f 72//72 9//9 73//73 
f 9//9 11//11 73//73 
f 73//73 11//11 74//74 
f 11//11 13//13 74//74 
f 74//74 13//13 75//75 
f 13//13 15//15 75//75 
f 75//75 15//15 76//76 
f 15//15 17//17 76//76 
f 76//76 17//17 77//77 
f 17//17 19//19 77//77 
f 77//77 19//19 78//78 
f 19//19 32//32 78//78 
f 78//78 32//32 79//79 
f 32//32 23//23 79//79 
f 79//79 23//23 80//80 
f 23//23 24//24 80//80 
f 80//80 24//24 81//81 
f 24//24 26//26 81//81 
f 81//81 26//26 82//82 
f 26//26 28//28 82//82 
f 82//82 28//28 83//83 
f 28//28 30//30 83//83 
f 83//83 30//30 84//84 
f 30//30 33//33 84//84 
f 84//84 33//33 85//85 
f 33//33 46//46 85//85 
f 85//85 46//46 86//86 
f 46//46 37//37 86//86 
f 86//86 37//37 87//87 
f 37//37 38//38 87//87 
f 87//87 38//38 88//88 
f 38//38 40//40 88//88 
f 88//88 40//40 89//89 
f 40//40 42//42 89//89 
f 89//89 42//42 90//90 
f 42//42 44//44 90//90 
f 90//90 44//44 91//91 
f 44//44 47//47 91//91 
f 91//91 47//47 92//92 
f 47//47 63//63 92//92 
f 92//92 63//63 93//93 
f 63//63 51//51 93//93 
f 93//93 51//51 94//94 
f 51//51 52//52 94//94 
f 94//94 52//52 95//95 
f 52//52 54//54 95//95 
f 95//95 54//54 96//96 
f 54//54 57//57 96//96 
f 96//96 57//57 97//97 
f 57//57 58//58 97//97 
f 97//97 58//58 97//97 
f 58//58 66//66 97//97 
f 97//97 66//66 98//98 
f 66//66 66//66 98//98 
f 98//98 66//66 99//99 
f 66//66 67//67 99//99 
f 99//99 67//67 100//100 
f 67//67 68//68 100//100 
f 100//100 68//68 101//101 
f 68//68 69//69 101//101 
f 101//101 69//69 102//102 
f 69//69 70//70 102//102 
f 102//102 70//70 103//103 
f 70//70 71//71 103//103 
f 103//103 71//71 104//104 
f 71//71 72//72 104//104 
f 104//104 72//72 105//105 
f 72//72 73//73 105//105 
f 105//105 73//73 106//106 
f 73//73 74//74 106//106 
f 106//106 74//74 107//107 
f 74//74 75//75 107//107 
f 107//107 75//75 108//108 
f 75//75 76//76 108//108 
f 108//108 76//76 109//109 
f 76//76 77//77 109//109 
f 109//109 77//77 110//110 
f 77//77 78//78 110//110 
f 110//110 78//78 111//111 
f 78//78 79//79 111//111 
f 111//111 79//79 112//112 
f 79//79 80//80 112//112 
f 112//112 80//80 113//113 
f 80//80 81//81 113//113 
f 113//113 81//81 114//114 
f 81//81 82//82 114//114 
f 114//114 82//82 115//115 
f 82//82 83//83 115//115 
f 115//115 83//83 116//116 
f 83//83 84//84 116//116 
f 116//116 84//84 117//117 
f 84//84 85//85 117//117 
f 117//117 85//85 118//118 
f 85//85 86//86 118//118 
f 118//118 86//86 119//119 
f 86//86 87//87 119//119 
f 119//119 87//87 120//120 
f 87//87 88//88 120//120 
f 120//120 88//88 121//121 
f 88//88 89//89 121//121 
f 121//121 89//89 122//122 
f 89//89 90//90 122//122 
f 122//122 90//90 123//123 
f 90//90 91//91 123//123 
f 123//123 91//91 124//124 
f 91//91 92//92 124//124 
f 124//124 92//92 125//125 
f 92//92 93//93 125//125 
f 125//125 93//93 126//126 
f 93//93 94//94 126//126 
f 126//126 94//94 127//127 
f 94//94 95//95 127//127 
f 127//127 95//95 128//128 
f 95//95 96//96 128//128 
f 128//128 96//96 129//129 
f 96//96 97//97 129//129 
f 129//129 97//97 129//129 
f 97//97 98//98 129//129 
f 129//129 98//98 130//130 
f 98//98 98//98 130//130 
f 130//130 98//98 131//131 
f 98//98 99//99 131//131 
f 131//131 99//99 132//132 
f 99//99 100//100 132//132 
f 132//132 100//100 133//133 
f 100//100 101//101 133//133 
f 133//133 101//101 134//134 
f 101//101 102//102 134//134 
f 134//134 102//102 135//135 
f 102//102 103//103 135//135 
f 135//135 103//103 136//136 
f 103//103 104//104 136//136 
f 136//136 104//104 137//137 
f 104//104 105//105 137//137 
f 137//137 105//105 138//138 
f 105//105 106//106 138//138 
f 138//138 106//106 139//139 
f 106//106 107//107 139//139 
f 139//139 107//107 140//140 
f 107//107 108//108 140//140 
f 140//140 108//108 141//141 
f 108//108 109//109 141//141 
f 141//141 109//109 142//142 
f 109//109 110//110 142//142 
f 142//142 110//110 143//143 
f 110//110 111//111 143//143 
f 143//143 111//111 144//144 
f 111//111 112//112 144//144 
f 144//144 112//112 145//145 
f 112//112 113//113 145//145 
f 145//145 113//113 146//146 
f 113//113 114//114 146//146 
f 146//146 114//114 147//147 
f 114//114 115//115 147//147 
f 147//147 115//115 148//148 
f 115//115 116//116 148//148 
f 148//148 116//116 149//149 
f 116//116 117//117 149//149 
f 149//149 117//117 150//150 
f 117//117 118//118 150//150 
f 150//150 118//118 151//151 
f 118//118 119//119 151//151 
f 151//151 119//119 152//152 
f 119//119 120//120 152//152 
f 152//152 120//120 153//153 
f 120//120 121//121 153//153 
f 153//153 121//121 154//154 
f 121//121 122//122 154//154 
f 154//154 122//122 155//155 
f 122//122 123//123 155//155 
f 155//155 123//123 156//156 
f 123//123 124//124 156//156 
f 156//156 124//124 157//157 
f 124//124 125//125 157//157 
f 157//157 125//125 158//158 
f 125//125 126//126 158//158 
f 158//158 126//126 159//159 
f 126//126 127//127 159//159 
f 159//159 127//127 160//160 
f 127//127 128//128 160//160 
f 160//160 128//128 161//161 
f 128//128 129//129 161//161 
f 161//161 129//129 161//161 
f 129//129 130//130 161//161 
f 161//161 130//130 161//161 
f 130//130 162//162 161//161 
f 161//161 162//162 161//161 
f 162//162 163//163 161//161 
f 161//161 163//163 160//160 
f 163//163 164//164 160//160 
f 160//160 164//164 159//159 
f 164//164 165//165 159//159 
f 159//159 165//165 158//158 
f 165//165 166//166 158//158 
f 158//158 166//166 157//157 
f 166//166 167//167 157//157 
f 157//157 167//167 156//156 
f 167//167 168//168 156//156 
f 156//156 168//168 155//155 
f 168//168 169//169 155//155 
f 155//155 169//169 154//154 
f 169//169 170//170 154//154 
f 154//154 170//170 153//153 
f 170//170 171//171 153//153 
f 153//153 171//171 152//152 
f 171//171 172//172 152//152 
f 152//152 172//172 151//151 
f 172//172 173//173 151//151 
f 151//151 173//173 150//150 
f 173//173 174//174 150//150 
f 150//150 174//174 149//149 
f 174//174 175//175 149//149 
f 149//149 175//175 148//148 
f 175//175 176//176 148//148 
f 148//148 176//176 147//147 
f 176//176 177//177 147//147 
f 147//147 177//177 146//146 
f 177//177 178//178 146//146 
f 146//146 178//178 145//145 
f 178//178 179//179 145//145 
f 145//145 179//179 144//144 
f 179//179 180//180 144//144 
f 144//144 180//180 143//143 
f 180//180 181//181 143//143 
f 143//143 181//181 142//142 
f 181//181 182//182 142//142 
f 142//142 182//182 141//141 
f 182//182 183//183 141//141 
f 141//141 183//183 140//140 
f 183//183 184//184 140//140 
f 140//140 184//184 139//139 
f 184//184 185//185 139//139 
f 139//139 185//185 138//138 
f 185//185 186//186 138//138 
f 138//138 186//186 137//137 
f 186//186 187//187 137//137 
f 137//137 187//187 136//136 
f 187//187 188//188 136//136 
f 136//136 188//188 135//135 
f 188//188 189//189 135//135 
f 135//135 189//189 134//134 
f 189//189 190//190 134//134 
f 134//134 190//190 133//133 
f 190//190 191//191 133//133 
f 133//133 191//191 132//132 
f 191//191 192//192 132//132 
f 132//132 192//192 131//131 
f 192//192 193//193 131//131 
f 131//131 193//193 130//130 
f 193//193 193//193 130//130 
f 130//130 193//193 162//162 
f 193//193 193//193 162//162 
f 162//162 193//193 194//194 
f 193//193 193//193 194//194 
f 194//194 193//193 195//195 
f 193//193 192//192 195//195 
f 195//195 192//192 196//196 
f 192//192 191//191 196//196 
f 196//196 191//191 197//197 
f 191//191 190//190 197//197 
f 197//197 190//190 198//198 
f 190//190 189//189 198//198 
f 198//198 189//189 199//199 
f 189//189 188//188 199//199 
f 199//199 188//188 200//200 
f 188//188 187//187 200//200 
f 200//200 187//187 201//201 
f 187//187 186//186 201//201 
f 201//201 186//186 202//202 
f 186//186 185//185 202//202 
f 202//202 185//185 203//203 
f 185//185 184//184 203//203 
f 203//203 184//184 204//204 
f 184//184 183//183 204//204 
f 204//204 183//183 205//205 
f 183//183 182//182 205//205 
f 205//205 182//182 206//206 
f 182//182 181//181 206//206 
f 206//206 181//181 207//207 
f 181//181 180//180 207//207 
f 207//207 180//180 208//208 
f 180//180 179//179 208//208 
f 208//208 179//179 209//209 
f 179//179 178//178 209//209 
f 209//209 178//178 210//210 
f 178//178 177//177 210//210 
f 210//210 177//177 211//211 
f 177//177 176//176 211//211 
f 211//211 176//176 212//212 
f 176//176 175//175 212//212 
f 212//212 175//175 213//213 
f 175//175 174//174 213//213 
f 213//213 174//174 214//214 
f 174//174 173//173 214//214 
f 214//214 173//173 215//215 
f 173//173 172//172 215//215 
f 215//215 172//172 216//216 
f 172//172 171//171 216//216 
f 216//216 171//171 217//217 
f 171//171 170//170 217//217 
f 217//217 170//170 218//218 
f 170//170 169//169 218//218 
f 218//218 169//169 219//219 
f 169//169 168//168 219//219 
f 219//219 168//168 220//220 
f 168//168 167//167 220//220 
f 220//220 167//167 221//221 
f 167//167 166//166 221//221 
f 221//221 166//166 222//222 
f 166//166 165//165 222//222 
f 222//222 165//165 223//223 
f 165//165 164//164 223//223 
f 223//223 164//164 224//224 
f 164//164 163//163 224//224 
f 224//224 163//163 225//225 
f 163//163 162//162 225//225 
f 225//225 162//162 225//225 
f 162//162 194//194 225//225 
f 225//225 194//194 226//226 
f 194//194 194//194 226//226 
f 226//226 194//194 227//227 
f 194//194 195//195 227//227 
f 227//227 195//195 228//228 
f 195//195 196//196 228//228 
f 228//228 196//196 229//229 
f 196//196 197//197 229//229 
f 229//229 197//197 230//230 
f 197//197 198//198 230//230 
f 230//230 198//198 231//231 
f 198//198 199//199 231//231 
f 231//231 199//199 232//232 
f 199//199 200//200 232//232 
f 232//232 200//200 233//233 
f 200//200 201//201 233//233 
f 233//233 201//201 234//234 
f 201//201 202//202 234//234 
f 234//234 202//202 235//235 
f 202//202 203//203 235//235 
f 235//235 203//203 236//236 
f 203//203 204//204 236//236 
f 236//236 204//204 237//237 
f 204//204 205//205 237//237 
f 237//237 205//205 238//238 
f 205//205 206//206 238//238 
f 238//238 206//206 239//239 
f 206//206 207//207 239//239 
f 239//239 207//207 240//240 
f 207//207 208//208 240//240 
f 240//240 208//208 241//241 
f 208//208 209//209 241//241 
f 241//241 209//209 242//242 
f 209//209 210//210 242//242 
f 242//242 210//210 243//243 
f 210//210 211//211 243//243 
f 243//243 211//211 244//244 
f 211//211 212//212 244//244 
f 244//244 212//212 245//245 
f 212//212 213//213 245//245 
f 245//245 213//213 246//246 
f 213//213 214//214 246//246 
f 246//246 214//214 247//247 
f 214//214 215//215 247//247 
f 247//247 215//215 248//248 
f 215//215 216//216 248//248 
f 248//248 216//216 249//249 
f 216//216 217//217 249//249 
f 249//249 217//217 250//250 
f 217//217 218//218 250//250 
f 250//250 218//218 251//251 
f 218//218 219//219 251//251 
f 251//251 219//219 252//252 
f 219//219 220//220 252//252 
f 252//252 220//220 253//253 
f 220//220 221//221 253//253 
f 253//253 221//221 254//254 
f 221//221 222//222 254//254 
f 254//254 222//222 255//255 
f 222//222 223//223 255//255 
f 255//255 223//223 256//256 
f 223//223 224//224 256//256 
f 256//256 224//224 257//257 
f 224//224 225//225 257//257 
f 257//257 225//225 257//257 
f 225//225 226//226 257//257 
f 257//257 226//226 258//258 
f 226//226 226//226 258//258 
f 258//258 226//226 259//259 
f 226//226 227//227 259//259 
f 259//259 227//227 260//260 
f 227//227 228//228 260//260 
f 260//260 228//228 261//261 
f 228//228 229//229 261//261 
f 261//261 229//229 262//262 
f 229//229 230//230 262//262 
f 262//262 230//230 263//263 
f 230//230 231//231 263//263 
f 263//263 231//231 264//264 
f 231//231 232//232 264//264 
f 264//264 232//232 265//265 
f 232//232 233//233 265//265 
f 265//265 233//233 266//266 
f 233//233 234//234 266//266 
f 266//266 234//234 267//267 
f 234//234 235//235 267//267 
f 267//267 235//235 268//268 
f 235//235 236//236 268//268 
f 268//268 236//236 269//269 
f 236//236 237//237 269//269 
f 269//269 237//237 270//270 
f 237//237 238//238 270//270 
f 270//270 238//238 271//271 
f 238//238 239//239 271//271 
f 271//271 239//239 272//272 
f 239//239 240//240 272//272 
f 272//272 240//240 273//273 
f 240//240 241//241 273//273 
f 273//273 241//241 274//274 
f 241//241 242//242 274//274 
f 274//274 242//242 275//275 
f 242//242 243//243 275//275 
f 275//275 243//243 276//276 
f 243//243 244//244 276//276 
f 276//276 244//244 277//277 
f 244//244 245//245 277//277 
f 277//277 245//245 278//278 
f 245//245 246//246 278//278 
f 278//278 246//246 279//279 
f 246//246 247//247 279//279 
f 279//279 247//247 280//280 
f 247//247 248//248 280//280 
f 280//280 248//248 281//281 
f 248//248 249//249 281//281 
f 281//281 249//249 282//282 
f 249//249 250//250 282//282 
f 282//282 250//250 283//283 
f 250//250 251//251 283//283 
f 283//283 251//251 284//284 
f 251//251 252//252 284//284 
f 284//284 252//252 285//285 
f 252//252 253//253 285//285 
f 285//285 253//253 286//286 
f 253//253 254//254 286//286 
f 286//286 254//254 287//287 
f 254//254 255//255 287//287 
f 287//287 255//255 288//288 
f 255//255 256//256 288//288 
f 288//288 256//256 289//289 
f 256//256 257//257 289//289 
f 289//289 257//257 289//289 
f 257//257 258//258 289//289 
f 289//289 258//258 290//290 
f 258//258 258//258 290//290 
f 290//290 258//258 291//291 
f 258//258 259//259 291//291 
f 291//291 259//259 292//292 
f 259//259 260//260 292//292 
f 292//292 260//260 293//293 
f 260//260 261//261 293//293 
f 293//293 261//261 294//294 
f 261//261 262//262 294//294 
f 294//294 262//262 295//295 
f 262//262 263//263 295//295 
f 295//295 263//263 296//296 
f 263//263 264//264 296//296 
f 296//296 264//264 297//297 
f 264//264 265//265 297//297 
f 297//297 265//265 298//298 
f 265//265 266//266 298//298 
f 298//298 266//266 299//299 
f 266//266 267//267 299//299 
f 299//299 267//267 300//300 
f 267//267 268//268 300//300 
f 300//300 268//268 301//301 
f 268//268 269//269 301//301 
f 301//301 269//269 302//302 
f 269//269 270//270 302//302 
f 302//302 270//270 303//303 
f 270//270 271//271 303//303 
f 303//303 271//271 304//304 
f 271//271 272//272 304//304 
f 304//304 272//272 305//305 
f 272//272 273//273 305//305 
f 305//305 273//273 306//306 
f 273//273 274//274 306//306 
f 306//306 274//274 307//307 
f 274//274 275//275 307//307 
f 307//307 275//275 308//308 
f 275//275 276//276 308//308 
f 308//308 276//276 309//309 
f 276//276 277//277 309//309 
f 309//309 277//277 310//310 
f 277//277 278//278 310//310 
f 310//310 278//278 311//311 
f 278//278 279//279 311//311 
f 311//311 279//279 312//312 
f 279//279 280//280 312//312 
f 312//312 280//280 313//313 
f 280//280 281//281 313//313 
f 313//313 281//281 314//314 
f 281//281 282//282 314//314 
f 314//314 282//282 315//315 
f 282//282 283//283 315//315 
f 315//315 283//283 316//316 
f 283//283 284//284 316//316 
f 316//316 284//284 317//317 
f 284//284 285//285 317//317 
f 317//317 285//285 318//318 
f 285//285 286//286 318//318 
f 318//318 286//286 319//319 
f 286//286 287//287 319//319 
f 319//319 287//287 320//320 
f 287//287 288//288 320//320 
f 320//320 288//288 321//321 
f 288//288 289//289 321//321 
f 321//321 289//289 321//321 
f 289//289 290//290 321//321 
f 321//321 290//290 322//322 
f 290//290 290//290 322//322 
f 322//322 290//290 323//323 
f 290//290 291//291 323//323 
f 323//323 291//291 324//324 
f 291//291 292//292 324//324 
f 324//324 292//292 325//325 
f 292//292 293//293 325//325 
f 325//325 293//293 326//326 
f 293//293 294//294 326//326 
f 326//326 294//294 327//327 
f 294//294 295//295 327//327 
f 327//327 295//295 328//328 
f 295//295 296//296 328//328 
f 328//328 296//296 329//329 
f 296//296 297//297 329//329 
f 329//329 297//297 330//330 
f 297//297 298//298 330//330 
f 330//330 298//298 331//331 
f 298//298 299//299 331//331 
f 331//331 299//299 332//332 
f 299//299 300//300 332//332 
f 332//332 300//300 333//333 
f 300//300 301//301 333//333 
f 333//333 301//301 334//334 
f 301//301 302//302 334//334 
f 334//334 302//302 335//335 
f 302//302 303//303 335//335 
f 335//335 303//303 336//336 
f 303//303 304//304 336//336 
f 336//336 304//304 337//337 
f 304//304 305//305 337//337 
f 337//337 305//305 338//338 
f 305//305 306//306 338//338 
f 338//338 306//306 339//339 
f 306//306 307//307 339//339 
f 339//339 307//307 340//340 
f 307//307 308//308 340//340 
f 340//340 308//308 341//341 
f 308//308 309//309 341//341 
f 341//341 309//309 342//342 
f 309//309 310//310 342//342 
f 342//342 310//310 343//343 
f 310//310 311//311 343//343 
f 343//343 311//311 344//344 
f 311//311 312//312 344//344 
f 344//344 312//312 345//345 
f 312//312 313//313 345//345 
f 345//345 313//313 346//346 
f 313//313 314//314 346//346 
f 346//346 314//314 347//347 
f 314//314 315//315 347//347 
f 347//347 315//315 348//348 
f 315//315 316//316 348//348 
f 348//348 316//316 349//349 
f 316//316 317//317 349//349 
f 349//349 317//317 350//350 
f 317//317 318//318 350//350 
f 350//350 318//318 351//351 
f 318//318 319//319 351//351 
f 351//351 319//319 352//352 
f 319//319 320//320 352//352 
f 352//352 320//320 353//353 
f 320//320 321//321 353//353 
f 353//353 321//321 353//353 
f 321//321 322//322 353//353 
f 353//353 322//322 354//354 
f 322//322 322//322 354//354 
f 354//354 322//322 355//355 
f 322//322 323//323 355//355 
f 355//355 323//323 356//356 
f 323//323 324//324 356//356 
f 356//356 324//324 357//357 
f 324//324 325//325 357//357 
f 357//357 325//325 358//358 
f 325//325 326//326 358//358 
f 358//358 326//326 359//359 
f 326//326 327//327 359//359 
f 359//359 327//327 360//360 
f 327//327 328//328 360//360 
f 360//360 328//328 361//361 
f 328//328 329//329 361//361 
f 361//361 329//329 362//362 
f 329//329 330//330 362//362 
f 362//362 330//330 363//363 
f 330//330 331//331 363//363 
f 363//363 331//331 364//364 
f 331//331 332//332 364//364 
f 364//364 332//332 365//365 
f 332//332 333//333 365//365 
f 365//365 333//333 366//366 
f 333//333 334//334 366//366 
f 366//366 334//334 367//367 
f 334//334 335//335 367//367 
f 367//367 335//335 368//368 
f 335//335 336//336 368//368 
f 368//368 336//336 369//369 
f 336//336 337//337 369//369 
f 369//369 337//337 370//370 
f 337//337 338//338 370//370 
f 370//370 338//338 371//371 
f 338//338 339//339 371//371 
f 371//371 339//339 372//372 
f 339//339 340//340 372//372 
f 372//372 340//340 373//373 
f 340//340 341//341 373//373 
f 373//373 341//341 374//374 
f 341//341 342//342 374//374 
f 374//374 342//342 375//375 
f 342//342 343//343 375//375 
f 375//375 343//343 376//376 
f 343//343 344//344 376//376 
f 376//376 344//344 377//377 
f 344//344 345//345 377//377 
f 377//377 345//345 378//378 
f 345//345 346//346 378//378 
f 378//378 346//346 379//379 
f 346//346 347//347 379//379 
f 379//379 347//347 380//380 
f 347//347 348//348 380//380 
f 380//380 348//348 381//381 
f 348//348 349//349 381//381 
f 381//381 349//349 382//382 
f 349//349 350//350 382//382 
f 382//382 350//350 383//383 
f 350//350 351//351 383//383 
f 383//383 351//351 384//384 
f 351//351 352//352 384//384 
f 384//384 352//352 385//385 
f 352//352 353//353 385//385 
f 385//385 353//353 385//385 
f 353//353 354//354 385//385 
f 385//385 354//354 386//386 
f 354//354 354//354 386//386 
f 386//386 354//354 387//387 
f 354//354 355//355 387//387 
f 387//387 355//355 388//388 
f 355//355 356//356 388//388 
f 388//388 356//356 389//389 
f 356//356 357//357 389//389 
f 389//389 357//357 390//390 
f 357//357 358//358 390//390 
f 390//390 358//358 391//391 
f 358//358 359//359 391//391 
f 391//391 359//359 392//392 
f 359//359 360//360 392//392 
f 392//392 360//360 393//393 
f 360//360 361//361 393//393 
f 393//393 361//361 394//394 
f 361//361 362//362 394//394 
f 394//394 362//362 395//395 
f 362//362 363//363 395//395 
f 395//395 363//363 396//396 
f 363//363 364//364 396//396 
f 396//396 364//364 397//397 
f 364//364 365//365 397//397 
f 397//397 365//365 398//398 
f 365//365 366//366 398//398 
f 398//398 366//366 399//399 
f 366//366 367//367 399//399 
f 399//399 367//367 400//400 
f 367//367 368//368 400//400 
f 400//400 368//368 401//401 
f 368//368 369//369 401//401 
f 401//401 369//369 402//402 
f 369//369 370//370 402//402 
f 402//402 370//370 403//403 
f 370//370 371//371 403//403 
f 403//403 371//371 404//404 
f 371//371 372//372 404//404 
f 404//404 372//372 405//405 
f 372//372 373//373 405//405 
f 405//405 373//373 406//406 
f 373//373 374//374 406//406 
f 406//406 374//374 407//407 
f 374//374 375//375 407//407 
f 407//407 375//375 408//408 
f 375//375 376//376 408//408 
f 408//408 376//376 409//409 
f 376//376 377//377 409//409 
f 409//409 377//377 410//410 
f 377//377 378//378 410//410 
f 410//410 378//378 411//411 
f 378//378 379//379 411//411 
f 411//411 379//379 412//412 
f 379//379 380//380 412//412 
f 412//412 380//380 413//413 
f 380//380 381//381 413//413 
f 413//413 381//381 414//414 
f 381//381 382//382 414//414 
f 414//414 382//382 415//415 
f 382//382 383//383 415//415 
f 415//415 383//383 416//416 
f 383//383 384//384 416//416 
f 416//416 384//384 417//417 
f 384//384 385//385 417//417 
f 417//417 385//385 417//417 
f 385//385 386//386 417//417 
f 417//417 386//386 418//418 
f 386//386 386//386 418//418 
f 418//418 386//386 419//419 
f 386//386 387//387 419//419 
f 419//419 387//387 420//420 
f 387//387 388//388 420//420 
f 420//420 388//388 421//421 
f 388//388 389//389 421//421 
f 421//421 389//389 422//422 
f 389//389 390//390 422//422 
f 422//422 390//390 423//423 
f 390//390 391//391 423//423 
f 423//423 391//391 424//424 
f 391//391 392//392 424//424 
f 424//424 392//392 425//425 
f 392//392 393//393 425//425 
f 425//425 393//393 426//426 
f 393//393 394//394 426//426 
f 426//426 394//394 427//427 
f 394//394 395//395 427//427 
f 427//427 395//395 428//428 
f 395//395 396//396 428//428 
f 428//428 396//396 429//429 
f 396//396 397//397 429//429 
f 429//429 397//397 430//430 
f 397//397 398//398 430//430 
f 430//430 398//398 431//431 
f 398//398 399//399 431//431 
f 431//431 399//399 432//432 
f 399//399 400//400 432//432 
f 432//432 400//400 433//433 
f 400//400 401//401 433//433 
f 433//433 401//401 434//434 
f 401//401 402//402 434//434 
f 434//434 402//402 435//435 
f 402//402 403//403 435//435 
f 435//435 403//403 436//436 
f 403//403 404//404 436//436 
f 436//436 404//404 437//437 
f 404//404 405//405 437//437 
f 437//437 405//405 438//438 
f 405//405 406//406 438//438 
f 438//438 406//406 439//439 
f 406//406 407//407 439//439 
f 439//439 407//407 440//440 
f 407//407 408//408 440//440 
f 440//440 408//408 441//441 
f 408//408 409//409 441//441 
f 441//441 409//409 442//442 
f 409//409 410//410 442//442 
f 442//442 410//410 443//443 
f 410//410 411//411 443//443 
f 443//443 411//411 444//444 
f 411//411 412//412 444//444 
f 444//444 412//412 445//445 
f 412//412 413//413 445//445 
f 445//445 413//413 446//446 
f 413//413 414//414 446//446 
f 446//446 414//414 447//447 
f 414//414 415//415 447//447 
f 447//447 415//415 448//448 
f 415//415 416//416 448//448 
f 448//448 416//416 449//449 
f 416//416 417//417 449//449 
f 449//449 417//417 418//418 

