mtllib model_1.mtl
o model_1
v -11.134363174438477 -49.28790283203125 159.09559631347656 
v -15.492403030395508 11.331480979919434 172.9871063232422 
v 20.949670791625977 -49.287899017333984 166.0286102294922 
v 19.30211639404297 11.331482887268066 180.40579223632812 
v 53.7397575378418 -49.287899017333984 166.49484252929688 
v 54.949928283691406 11.331482887268066 180.9894256591797 
v 85.99854278564453 -49.287899017333984 160.59759521484375 
v 90.00740814208984 11.331482887268066 174.5025177001953 
v 116.48870086669922 -49.28790283203125 148.440185546875 
v 123.08997344970703 11.331480979919434 161.41668701171875 
v 143.8403778076172 -49.28790283203125 130.67095947265625 
v 152.97503662109375 11.331478118896484 142.01197814941406 
v 167.39080810546875 -49.287906646728516 107.8792495727539 
v 178.49905395507812 11.331474304199219 117.27552795410156 
v 185.97645568847656 -49.28791046142578 81.05215454101562 
v 198.6604766845703 11.331470489501953 88.00293731689453 
v 198.9492645263672 -49.28791809082031 50.955787658691406 
v 212.8407745361328 11.331464767456055 55.313812255859375 
v 205.8822784423828 -49.28792190551758 18.871749877929688 
v 220.2594757080078 11.331459045410156 20.519296646118164 
v 206.3485107421875 -49.287925720214844 -13.918333053588867 
v 220.8430938720703 11.331453323364258 -15.12851333618164 
v 200.45127868652344 -49.287933349609375 -46.177120208740234 
v 214.356201171875 11.33144760131836 -50.185997009277344 
v 188.30862426757812 -49.28793716430664 -76.49050903320312 
v 201.27035522460938 11.331442832946777 -83.26856231689453 
v 170.52462768554688 -49.287940979003906 -104.01895141601562 
v 181.86566162109375 11.331437110900879 -113.15362548828125 
v 147.73291015625 -49.28794479370117 -127.56938934326172 
v 157.1291961669922 11.331432342529297 -138.67764282226562 
v 120.72905731201172 -49.28794860839844 -146.14027404785156 
v 127.85660552978516 11.331429481506348 -158.83905029296875 
v 90.80945587158203 -49.2879524230957 -159.1278533935547 
v 95.18224334716797 11.331426620483398 -172.8426055908203 
v 58.72541809082031 -49.2879524230957 -166.0608673095703 
v 60.37297439575195 11.331424713134766 -180.4380645751953 
v 25.935333251953125 -49.28795623779297 -166.52708435058594 
v 24.739919662475586 11.33142375946045 -180.8449249267578 
v -6.323455810546875 -49.2879524230957 -160.62985229492188 
v -10.332320213317871 11.331424713134766 -174.5347900390625 
v -36.81360626220703 -49.2879524230957 -148.47244262695312 
v -43.40013122558594 11.331426620483398 -161.27218627929688 
v -64.16529083251953 -49.28794860839844 -130.70321655273438 
v -73.29995727539062 11.331429481506348 -142.0442352294922 
v -87.71572875976562 -49.28794479370117 -107.91148376464844 
v -98.82396697998047 11.331432342529297 -117.30779266357422 
v -106.2865982055664 -49.287940979003906 -80.90763092041016 
v -118.9853744506836 11.331437110900879 -88.03519439697266 
v -119.25941467285156 -49.28793716430664 -50.81126403808594 
v -133.16567993164062 11.331442832946777 -55.346073150634766 
v -126.20718383789062 -49.287933349609375 -18.903993606567383 
v -140.58438110351562 11.33144760131836 -20.551559448242188 
v -126.67342376708984 -49.287925720214844 13.886089324951172 
v -140.99124145507812 11.331453323364258 15.08149242401123 
v -120.77617645263672 -49.28792190551758 46.144874572753906 
v -134.6811065673828 11.331459045410156 50.15373611450195 
v -108.61875915527344 -49.28791809082031 76.6350326538086 
v -121.59526824951172 11.331464767456055 83.23629760742188 
v -90.83477783203125 -49.28791046142578 104.1634750366211 
v -102.19055938720703 11.331470489501953 113.12136840820312 
v -68.05782318115234 -49.287906646728516 127.53714752197266 
v -77.45410919189453 11.331474304199219 138.64537048339844 
v -41.05397033691406 -49.28790283203125 146.10801696777344 
v -48.181522369384766 11.331478118896484 158.80679321289062 
v -35.649436950683594 72.61215209960938 136.2230224609375 
v -7.586015701293945 72.6121597290039 148.29759216308594 
v 22.317827224731445 72.6121597290039 154.70065307617188 
v 52.795230865478516 72.6121597290039 155.18197631835938 
v 82.77085876464844 72.6121597290039 149.65335083007812 
v 111.19888305664062 72.6121597290039 138.38009643554688 
v 136.87147521972656 72.61215209960938 121.81903076171875 
v 158.7723388671875 72.61215209960938 100.58899688720703 
v 176.0767059326172 72.61214447021484 75.47084045410156 
v 188.15127563476562 72.61214447021484 47.40741729736328 
v 194.55433654785156 72.61213684082031 17.503572463989258 
v 195.03565979003906 72.61213684082031 -12.973828315734863 
v 189.5070343017578 72.61212921142578 -42.9494514465332 
v 178.23377990722656 72.61212158203125 -71.37747955322266 
v 161.67271423339844 72.61212158203125 -97.05007934570312 
v 140.4574432373047 72.61211395263672 -118.77418518066406 
v 115.32452392578125 72.61211395263672 -136.2552947998047 
v 87.26110076904297 72.61211395263672 -148.3298797607422 
v 57.35725784301758 72.61210632324219 -154.73294067382812 
v 26.87985610961914 72.61210632324219 -155.21426391601562 
v -3.0957698822021484 72.61210632324219 -149.68563842773438 
v -31.523792266845703 72.61211395263672 -138.41238403320312 
v -57.19639205932617 72.61211395263672 -121.85131072998047 
v -79.08250427246094 72.61211395263672 -100.44451904296875 
v -96.40161895751953 72.61212158203125 -75.50312805175781 
v -108.47618865966797 72.61212158203125 -47.439701080322266 
v -114.8792495727539 72.61212921142578 -17.535856246948242 
v -115.36058044433594 72.61213684082031 12.941545486450195 
v -109.83195495605469 72.61213684082031 42.91716766357422 
v -98.55868530273438 72.61214447021484 71.3451919555664 
v -81.99762725830078 72.61214447021484 97.01779174804688 
v -60.76759719848633 72.61215209960938 118.91866302490234 
v -30.14864158630371 117.58070373535156 82.72110748291016 
v -12.588033676147461 117.58070373535156 94.78260040283203 
v 6.813319683074951 117.58070373535156 103.30848693847656 
v 27.642871856689453 117.58070373535156 107.62125396728516 
v 48.854793548583984 117.58070373535156 107.98619079589844 
v 69.7125244140625 117.58070373535156 104.10880279541016 
v 89.53851318359375 117.58070373535156 96.40165710449219 
v 107.25743865966797 117.58070373535156 84.77655029296875 
v 122.57479858398438 117.58070373535156 69.97003936767578 
v 134.6510467529297 117.58069610595703 52.58618927001953 
v 143.1621856689453 117.58069610595703 33.00807571411133 
v 147.47494506835938 117.58069610595703 12.178523063659668 
v 147.83987426757812 117.5806884765625 -9.033400535583496 
v 143.96249389648438 117.5806884765625 -29.89112663269043 
v 136.25535583496094 117.58068084716797 -49.71712112426758 
v 124.63024139404297 117.58068084716797 -67.43604278564453 
v 109.82372283935547 117.58068084716797 -82.75340270996094 
v 92.26312255859375 117.58067321777344 -94.81489562988281 
v 72.87652587890625 117.58067321777344 -103.16402435302734 
v 52.0322151184082 117.58067321777344 -107.65355682373047 
v 30.82029151916504 117.58067321777344 -108.01847839355469 
v 9.962564468383789 117.58067321777344 -104.14110565185547 
v -9.848671913146973 117.58067321777344 -96.25719451904297 
v -27.58234977722168 117.58067321777344 -84.80884552001953 
v -42.89971160888672 117.58068084716797 -70.00232696533203 
v -54.961204528808594 117.58068084716797 -52.44172668457031 
v -63.48709487915039 117.58068084716797 -33.04037094116211 
v -67.79985809326172 117.5806884765625 -12.210821151733398 
v -68.164794921875 117.5806884765625 9.001102447509766 
v -64.28740692138672 117.58069610595703 29.858829498291016 
v -56.580265045166016 117.58069610595703 49.6848258972168 
v -44.94039535522461 117.58069610595703 67.58050537109375 
v 15.137641906738281 176.32638549804688 19.667613983154297 
v 11.8519287109375 176.32638549804688 14.424084663391113 
v 9.59727668762207 176.32638549804688 8.738478660583496 
v 8.373684883117676 176.32638549804688 2.6107988357543945 
v 8.564203262329102 176.32638549804688 -3.6349477767944336 
v 9.844816207885742 176.32638549804688 -9.615715026855469 
v 12.215520858764648 176.32638549804688 -15.331506729125977 
v 15.705842018127441 176.3263702392578 -20.428794860839844 
v 20.153770446777344 176.3263702392578 -24.71605682373047 
v 25.39729881286621 176.3263702392578 -28.001771926879883 
v 31.082904815673828 176.3263702392578 -30.256423950195312 
v 37.21058654785156 176.3263702392578 -31.480012893676758 
v 43.456329345703125 176.3263702392578 -31.28949737548828 
v 49.43709945678711 176.3263702392578 -30.008886337280273 
v 55.152889251708984 176.3263702392578 -27.6381778717041 
v 60.250179290771484 176.3263702392578 -24.147857666015625 
v 64.53743743896484 176.32638549804688 -19.69993019104004 
v 67.82315826416016 176.32638549804688 -14.456399917602539 
v 70.07781219482422 176.32638549804688 -8.770796775817871 
v 71.30139923095703 176.32638549804688 -2.643115520477295 
v 71.11088562011719 176.32638549804688 3.602630376815796 
v 69.83026885986328 176.32638549804688 9.583399772644043 
v 67.45956420898438 176.32638549804688 15.29919147491455 
v 63.969242095947266 176.32638549804688 20.3964786529541 
v 59.52131271362305 176.32638549804688 24.683738708496094 
v 54.27778625488281 176.32638549804688 27.96945571899414 
v 48.59217834472656 176.32638549804688 30.22410774230957 
v 42.464500427246094 176.32638549804688 31.447696685791016 
v 36.218753814697266 176.32638549804688 31.25718116760254 
v 30.23798370361328 176.32638549804688 29.9765682220459 
v 24.522193908691406 176.32638549804688 27.605859756469727 
v 19.42490577697754 176.32638549804688 24.115541458129883 
v 8.373684883117676 176.32638549804688 2.6107988357543945 
v 9.59727668762207 176.32638549804688 8.738478660583496 
v 8.564203262329102 176.32638549804688 -3.6349477767944336 
v 9.844816207885742 176.32638549804688 -9.615715026855469 
v 11.8519287109375 176.32638549804688 14.424084663391113 
v 12.215520858764648 176.32638549804688 -15.331506729125977 
v 15.137641906738281 176.32638549804688 19.667613983154297 
v 15.705842018127441 176.3263702392578 -20.428794860839844 
v 19.42490577697754 176.32638549804688 24.115541458129883 
v 20.153770446777344 176.3263702392578 -24.71605682373047 
v 24.522193908691406 176.32638549804688 27.605859756469727 
v 25.39729881286621 176.3263702392578 -28.001771926879883 
v 30.23798370361328 176.32638549804688 29.9765682220459 
v 31.082904815673828 176.3263702392578 -30.256423950195312 
v 36.218753814697266 176.32638549804688 31.25718116760254 
v 37.21058654785156 176.3263702392578 -31.480012893676758 
v 42.464500427246094 176.32638549804688 31.447696685791016 
v 48.59217834472656 176.32638549804688 30.22410774230957 
v 43.456329345703125 176.3263702392578 -31.28949737548828 
v 49.43709945678711 176.3263702392578 -30.008886337280273 
v 54.27778625488281 176.32638549804688 27.96945571899414 
v 55.152889251708984 176.3263702392578 -27.6381778717041 
v 59.52131271362305 176.32638549804688 24.683738708496094 
v 60.250179290771484 176.3263702392578 -24.147857666015625 
v 63.969242095947266 176.32638549804688 20.3964786529541 
v 64.53743743896484 176.32638549804688 -19.69993019104004 
v 67.45956420898438 176.32638549804688 15.29919147491455 
v 67.82315826416016 176.32638549804688 -14.456399917602539 
v 69.83026885986328 176.32638549804688 9.583399772644043 
v 70.07781219482422 176.32638549804688 -8.770796775817871 
v 71.11088562011719 176.32638549804688 3.602630376815796 
v 71.30139923095703 176.32638549804688 -2.643115520477295 
vn 0.0012351216282695532 -0.0034189766738563776 -0.0038555501960217953 
vn 0.0016249092295765877 -0.00042787898564711213 -0.00502560893073678 
vn 0.0004529890138655901 -0.0034189766738563776 -0.0040231323800981045 
vn 0.0006095116259530187 -0.00042787904385477304 -0.005246481858193874 
vn -0.0003468260692898184 -0.0034189766738563776 -0.0040336716920137405 
vn -0.0004294784739613533 -0.00042787904385477304 -0.005264278035610914 
vn -0.0011331028072163463 -0.0034189766738563776 -0.003886756021529436 
vn -0.0014518445823341608 -0.00042787904385477304 -0.005078309215605259 
vn -0.001839553820900619 -0.0034189766738563776 -0.0036064989399164915 
vn -0.0024180139880627394 -0.00042787898564711213 -0.004695773124694824 
vn -0.0025127113331109285 -0.0034189766738563776 -0.003174440935254097 
vn -0.0032905887346714735 -0.00042787889833562076 -0.0041314768604934216 
vn -0.003087785327807069 -0.003418976441025734 -0.002618468599393964 
vn -0.0040357946418225765 -0.0004278788110241294 -0.003407262498512864 
vn -0.0035423270892351866 -0.003418976441025734 -0.001960284076631069 
vn -0.004624785855412483 -0.0004278786655049771 -0.0025511630810797215 
vn -0.0038585944566875696 -0.0034189762081950903 -0.0012255798792466521 
vn -0.005034764297306538 -0.0004278785199858248 -0.001596315298229456 
vn -0.004024241119623184 -0.0034189762081950903 -0.0004430350672919303 
vn -0.005249861627817154 -0.0004278783453628421 -0.000579678628128022 
vn -0.004036134574562311 -0.0034189759753644466 0.0003168831462971866 
vn -0.005265082698315382 -0.0004278781998436898 0.00041950299055315554 
vn -0.003895058063790202 -0.0034189759753644466 0.0011042284313589334 
vn -0.005081051029264927 -0.00042787802522070706 0.0014422197127714753 
vn -0.003601938020437956 -0.003418975742533803 0.0018484703032299876 
vn -0.0047003463841974735 -0.0004278778505977243 0.002409112174063921 
vn -0.003168215975165367 -0.003418975742533803 0.0025205567944794893 
vn -0.004137704614549875 -0.00042787770507857203 0.0032827546820044518 
vn -0.002610822906717658 -0.0034189755097031593 0.0030942538287490606 
vn -0.0034149037674069405 -0.0004278775886632502 0.004029330797493458 
vn -0.00195151602383703 -0.0034189755097031593 0.003547166008502245 
vn -0.0025599217042326927 -0.0004278774722479284 0.00461994344368577 
vn -0.001216031494550407 -0.0034189755097031593 0.0038616147357970476 
vn -0.001605852390639484 -0.000427877384936437 0.005031730514019728 
vn -0.00047288736095651984 -0.0034189752768725157 0.0040208431892097 
vn -0.0005896250950172544 -0.00042787735583260655 0.005248753819614649 
vn 0.00032686584745533764 -0.0034189752768725157 0.0040353392250835896 
vn 0.0004494249587878585 -0.0004278773267287761 0.005262612830847502 
vn 0.0011138597037643194 -0.0034189752768725157 0.0038923153188079596 
vn 0.0014710790710523725 -0.00042787735583260655 0.005072770640254021 
vn 0.001857374096289277 -0.0034189755097031593 0.003597354982048273 
vn 0.0024357917718589306 -0.000427877384936437 0.004686576314270496 
vn 0.0025283859577029943 -0.0034189755097031593 0.0031619719229638577 
vn 0.0032749087549746037 -0.0004278774722479284 0.004143917467445135 
vn 0.0031007020734250546 -0.0034189755097031593 0.002603161381557584 
vn 0.004022853448987007 -0.0004278775886632502 0.003422532230615616 
vn 0.0035325854551047087 -0.003418975742533803 0.001977786421775818 
vn 0.004615084733814001 -0.00042787770507857203 0.002568671014159918 
vn 0.003852483816444874 -0.003418975742533803 0.0012446558102965355 
vn 0.005028679035604 -0.0004278778505977243 0.0016153838951140642 
vn 0.004021999891847372 -0.0034189759753644466 0.000462940166471526 
vn 0.005247627384960651 -0.00042787802522070706 0.0005995694664306939 
vn 0.004034517798572779 -0.0034189759753644466 -0.00033684642403386533 
vn 0.005263454746454954 -0.0004278781998436898 -0.0004394524439703673 
vn 0.0038895474281162024 -0.0034189762081950903 -0.0011234841076657176 
vn 0.005075549241155386 -0.0004278783453628421 -0.001461464329622686 
vn 0.0035927491262555122 -0.0034189762081950903 -0.0018662665970623493 
vn 0.004691183101385832 -0.0004278785199858248 -0.0024269071873277426 
vn 0.003155707148835063 -0.003418976441025734 -0.002536199288442731 
vn 0.004125234205275774 -0.0004278786655049771 -0.0032984111458063126 
vn 0.0026260993909090757 -0.003418976441025734 -0.003081297967582941 
vn 0.0033996098209172487 -0.0004278788110241294 -0.004042243119329214 
vn 0.0019690413028001785 -0.0034189766738563776 -0.003537466749548912 
vn 0.002542395843192935 -0.00042787889833562076 -0.004629611503332853 
vn 0.0021064477041363716 -0.0029764187056571245 -0.003844996215775609 
vn 0.0013349339133128524 -0.0029764187056571245 -0.0041760108433663845 
vn 0.00047468740376643836 -0.0029764187056571245 -0.004358415957540274 
vn -0.00036477233516052365 -0.0029764187056571245 -0.004368987865746021 
vn -0.0011908565647900105 -0.0029764187056571245 -0.004219357389956713 
vn -0.0020089452154934406 -0.0029764187056571245 -0.0038968261796981096 
vn -0.0027148863300681114 -0.0029764187056571245 -0.0034424569457769394 
vn -0.0033472746144980192 -0.002976418472826481 -0.002831408055499196 
vn -0.003825599327683449 -0.002976418472826481 -0.002141473349183798 
vn -0.004176011309027672 -0.002976418239995837 -0.0013349333312362432 
vn -0.004358416423201561 -0.002976418239995837 -0.00047468687989749014 
vn -0.004368988331407309 -0.0029764180071651936 0.0003647728590294719 
vn -0.004219357855618 -0.0029764180071651936 0.0011908570304512978 
vn -0.003896826645359397 -0.00297641777433455 0.002008945681154728 
vn -0.0034175203181803226 -0.0029764175415039062 0.0027462115976959467 
vn -0.0028314085211604834 -0.0029764175415039062 0.0033472750801593065 
vn -0.002106447471305728 -0.0029764175415039062 0.0038449971470981836 
vn -0.0013349337968975306 -0.0029764173086732626 0.004176011774688959 
vn -0.000474687316454947 -0.0029764173086732626 0.004358416888862848 
vn 0.000364772422472015 -0.0029764173086732626 0.004368989262729883 
vn 0.0011908565647900105 -0.0029764173086732626 0.004219358321279287 
vn 0.0020089452154934406 -0.0029764173086732626 0.0038968271110206842 
vn 0.0027462111320346594 -0.0029764175415039062 0.00341752078384161 
vn 0.0033472746144980192 -0.0029764175415039062 0.0028314089868217707 
vn 0.0038255995605140924 -0.0029764175415039062 0.002141474513337016 
vn 0.004176011309027672 -0.00297641777433455 0.0013349342625588179 
vn 0.004358416423201561 -0.0029764180071651936 0.0004746878403238952 
vn 0.004368988797068596 -0.0029764180071651936 -0.0003647718986030668 
vn 0.004219357855618 -0.002976418239995837 -0.0011908560991287231 
vn 0.003896826645359397 -0.002976418239995837 -0.0020089447498321533 
vn 0.0034175205510109663 -0.002976418472826481 -0.002746210666373372 
vn 0.0028314085211604834 -0.002976418472826481 -0.003347274148836732 
vn 0.002213659230619669 -0.004026066977530718 -0.0026402093935757875 
vn 0.0016527543775737286 -0.004026067443192005 -0.0030231433920562267 
vn 0.0010657546808943152 -0.004026067443192005 -0.003276454983279109 
vn 0.00040234625339508057 -0.004026067443192005 -0.003421857487410307 
vn -0.0002766955876722932 -0.004026067443192005 -0.0034343020524829626 
vn -0.0009449863573536277 -0.004026067443192005 -0.0033133053220808506 
vn -0.0015765591524541378 -0.004026067443192005 -0.00306356861256063 
vn -0.002146874088793993 -0.004026067443192005 -0.0026947956066578627 
vn -0.0026337713934481144 -0.004026066977530718 -0.0022213151678442955 
vn -0.003018332179635763 -0.004026066977530718 -0.0016615244094282389 
vn -0.003285614773631096 -0.004026066977530718 -0.0010371743701398373 
vn -0.0034252330660820007 -0.004026066977530718 -0.0003725245187524706 
vn -0.003435091581195593 -0.004026066977530718 0.0002667236258275807 
vn -0.0033160357270389795 -0.0040260665118694305 0.0009353628847748041 
vn -0.003068133955821395 -0.0040260665118694305 0.0015676581533625722 
vn -0.002701018238440156 -0.0040260665118694305 0.002139041433110833 
vn -0.0022289534099400043 -0.0040260665118694305 0.0026273115072399378 
vn -0.0016702816355973482 -0.0040260665118694305 0.0030134962871670723 
vn -0.0010467104148119688 -0.004026066046208143 0.0032825900707393885 
vn -0.00038246874464675784 -0.004026066046208143 0.0034241375979036093 
vn 0.00029663395253010094 -0.004026066046208143 0.0034326387103646994 
vn 0.0009642107761465013 -0.004026066046208143 0.003307763021439314 
vn 0.0015943227335810661 -0.004026066046208143 0.003054363187402487 
vn 0.00213118945248425 -0.0040260665118694305 0.0027072185184806585 
vn 0.002620828105136752 -0.0040260665118694305 0.0022365732584148645 
vn 0.0030086329206824303 -0.0040260665118694305 0.001679025124758482 
vn 0.003279536496847868 -0.0040260665118694305 0.0010562377283349633 
vn 0.003423011861741543 -0.0040260665118694305 0.00039240982732735574 
vn 0.003433485049754381 -0.004026066977530718 -0.00028666533762589097 
vn 0.0033105481415987015 -0.004026066977530718 -0.0009546019718982279 
vn 0.003058978822082281 -0.004026066977530718 -0.001585446996614337 
vn 0.0026885513216257095 -0.004026066977530718 -0.0021546888165175915 
vn 0.0014113454381003976 -0.004986508283764124 -0.0011059289099648595 
vn 0.0015856014797464013 -0.004986508283764124 -0.0008371638832613826 
vn 0.001720939762890339 -0.004986508283764124 -0.0005033310153521597 
vn 0.001786818727850914 -0.004986508283764124 -0.00014918293163646013 
vn 0.0017805789830163121 -0.004986508283764124 0.00021098639990668744 
vn 0.0017024728003889322 -0.004986508283764124 0.0005626400234177709 
vn 0.0015751977916806936 -0.004986507818102837 0.0008565802709199488 
vn 0.0013721917057409883 -0.004986507818102837 0.001154152792878449 
vn 0.0011138019617646933 -0.004986507818102837 0.0014051420148462057 
vn 0.0008104576263576746 -0.004986507818102837 0.0015994178829714656 
vn 0.0005129440105520189 -0.004986507818102837 0.0017181000439450145 
vn 0.00015916978009045124 -0.004986507818102837 0.0017859574873000383 
vn -0.0002010287862503901 -0.004986507818102837 0.0017817314947023988 
vn -0.0005531135248020291 -0.004986507818102837 0.001705592148937285 
vn -0.0008828738937154412 -0.004986507818102837 0.0015606129309162498 
vn -0.0011464633280411363 -0.004986507818102837 0.0013786227209493518 
vn -0.0013988929567858577 -0.004986507818102837 0.0011216399725526571 
vn -0.0015948615036904812 -0.004986508283764124 0.0008193865069188178 
vn -0.0017264592461287975 -0.004986508283764124 0.00048406136920675635 
vn -0.0017883747350424528 -0.004986508283764124 0.0001291989319724962 
vn -0.001782826497219503 -0.004986508283764124 -0.00019106504623778164 
vn -0.0017086565494537354 -0.004986508283764124 -0.0005435699713416398 
vn -0.0015655228635296226 -0.004986508283764124 -0.0008741355850361288 
vn -0.001359202666208148 -0.004986508283764124 -0.0011694198474287987 
vn -0.0011294414289295673 -0.004986508283764124 -0.00139260059222579 
vn -0.0008282880298793316 -0.004986508283764124 -0.0015902555314823985 
vn -0.0004937038174830377 -0.004986508283764124 -0.0017237256979569793 
vn -0.00013919304183218628 -0.004986508283764124 -0.0017876237398013473 
vn 0.0002209357771789655 -0.004986508283764124 -0.001779370941221714 
vn 0.0005340109346434474 -0.004986508283764124 -0.001711667631752789 
vn 0.0008653715485706925 -0.004986508283764124 -0.0015703841345384717 
vn 0.0011618045391514897 -0.004986508283764124 -0.0013657177332788706 
vn 0.001786818727850914 -0.004986508283764124 -0.00014918293163646013 
vn 0.001720939762890339 -0.004986508283764124 -0.0005033310153521597 
vn 0.0017805789830163121 -0.004986508283764124 0.00021098639990668744 
vn 0.0017024728003889322 -0.004986508283764124 0.0005626400234177709 
vn 0.0015856014797464013 -0.004986508283764124 -0.0008371638832613826 
vn 0.0015751977916806936 -0.004986507818102837 0.0008565802709199488 
vn 0.0014113454381003976 -0.004986508283764124 -0.0011059289099648595 
vn 0.0013721917057409883 -0.004986507818102837 0.001154152792878449 
vn 0.0011618045391514897 -0.004986508283764124 -0.0013657177332788706 
vn 0.0011138019617646933 -0.004986507818102837 0.0014051420148462057 
vn 0.0008653715485706925 -0.004986508283764124 -0.0015703841345384717 
vn 0.0008104576263576746 -0.004986507818102837 0.0015994178829714656 
vn 0.0005340109346434474 -0.004986508283764124 -0.001711667631752789 
vn 0.0005129440105520189 -0.004986507818102837 0.0017181000439450145 
vn 0.0002209357771789655 -0.004986508283764124 -0.001779370941221714 
vn 0.00015916978009045124 -0.004986507818102837 0.0017859574873000383 
vn -0.00013919304183218628 -0.004986508283764124 -0.0017876237398013473 
vn -0.0004937038174830377 -0.004986508283764124 -0.0017237256979569793 
vn -0.0002010287862503901 -0.004986507818102837 0.0017817314947023988 
vn -0.0005531135248020291 -0.004986507818102837 0.001705592148937285 
vn -0.0008282880298793316 -0.004986508283764124 -0.0015902555314823985 
vn -0.0008828738937154412 -0.004986507818102837 0.0015606129309162498 
vn -0.0011294414289295673 -0.004986508283764124 -0.00139260059222579 
vn -0.0011464633280411363 -0.004986507818102837 0.0013786227209493518 
vn -0.001359202666208148 -0.004986508283764124 -0.0011694198474287987 
vn -0.0013988929567858577 -0.004986507818102837 0.0011216399725526571 
vn -0.0015655228635296226 -0.004986508283764124 -0.0008741355850361288 
vn -0.0015948615036904812 -0.004986508283764124 0.0008193865069188178 
vn -0.0017086565494537354 -0.004986508283764124 -0.0005435699713416398 
vn -0.0017264592461287975 -0.004986508283764124 0.00048406136920675635 
vn -0.001782826497219503 -0.004986508283764124 -0.00019106504623778164 
vn -0.0017883747350424528 -0.004986508283764124 0.0001291989319724962 
s on 
f 1//1 2//2 3//3 
f 2//2 4//4 3//3 
f 3//3 4//4 5//5 
f 4//4 6//6 5//5 
f 5//5 6//6 7//7 
f 6//6 8//8 7//7 
f 7//7 8//8 9//9 
f 8//8 10//10 9//9 
f 9//9 10//10 11//11 
f 10//10 12//12 11//11 
f 11//11 12//12 13//13 
f 12//12 14//14 13//13 
f 13//13 14//14 15//15 
f 14//14 16//16 15//15 
f 15//15 16//16 17//17 
f 16//16 18//18 17//17 
f 17//17 18//18 19//19 
f 18//18 20//20 19//19 
f 19//19 20//20 21//21 
f 20//20 22//22 21//21 
f 21//21 22//22 23//23 
f 22//22 24//24 23//23 
f 23//23 24//24 25//25 
f 24//24 26//26 25//25 
f 25//25 26//26 27//27 
f 26//26 28//28 27//27 
f 27//27 28//28 29//29 
f 28//28 30//30 29//29 
f 29//29 30//30 31//31 
f 30//30 32//32 31//31 
f 31//31 32//32 33//33 
f 32//32 34//34 33//33 
f 33//33 34//34 35//35 
f 34//34 36//36 35//35 
f 35//35 36//36 37//37 
f 36//36 38//38 37//37 
f 37//37 38//38 39//39 
f 38//38 40//40 39//39 
f 39//39 40//40 41//41 
f 40//40 42//42 41//41 
f 41//41 42//42 43//43 
f 42//42 44//44 43//43 
f 43//43 44//44 45//45 
f 44//44 46//46 45//45 
f 45//45 46//46 47//47 
f 46//46 48//48 47//47 
f 47//47 48//48 49//49 
f 48//48 50//50 49//49 
f 49//49 50//50 51//51 
f 50//50 52//52 51//51 
f 51//51 52//52 53//53 
f 52//52 54//54 53//53 
f 53//53 54//54 55//55 
f 54//54 56//56 55//55 
f 55//55 56//56 57//57 
f 56//56 58//58 57//57 
f 57//57 58//58 59//59 
f 58//58 60//60 59//59 
f 59//59 60//60 61//61 
f 60//60 62//62 61//61 
f 61//61 62//62 63//63 
f 62//62 64//64 63//63 
f 63//63 64//64 1//1 
f 64//64 64//64 1//1 
f 1//1 64//64 2//2 
f 64//64 65//65 2//2 
f 2//2 65//65 2//2 
f 65//65 66//66 2//2 
f 2//2 66//66 4//4 
f 66//66 67//67 4//4 
f 4//4 67//67 6//6 
f 67//67 68//68 6//6 
f 6//6 68//68 8//8 
f 68//68 69//69 8//8 
f 8//8 69//69 10//10 
f 69//69 70//70 10//10 
f 10//10 70//70 12//12 
f 70//70 71//71 12//12 
f 12//12 71//71 14//14 
f 71//71 72//72 14//14 
f 14//14 72//72 16//16 
f 72//72 73//73 16//16 
f 16//16 73//73 18//18 
f 73//73 74//74 18//18 
f 18//18 74//74 20//20 
f 74//74 75//75 20//20 
f 20//20 75//75 22//22 
f 75//75 76//76 22//22 
f 22//22 76//76 24//24 
f 76//76 77//77 24//24 
f 24//24 77//77 26//26 
f 77//77 78//78 26//26 
f 26//26 78//78 28//28 
f 78//78 79//79 28//28 
f 28//28 79//79 30//30 
f 79//79 80//80 30//30 
f 30//30 80//80 32//32 
f 80//80 81//81 32//32 
f 32//32 81//81 34//34 
f 81//81 82//82 34//34 
f 34//34 82//82 36//36 
f 82//82 83//83 36//36 
f 36//36 83//83 38//38 
f 83//83 84//84 38//38 
f 38//38 84//84 40//40 
f 84//84 85//85 40//40 
f 40//40 85//85 42//42 
f 85//85 86//86 42//42 
f 42//42 86//86 44//44 
f 86//86 87//87 44//44 
f 44//44 87//87 46//46 
f 87//87 88//88 46//46 
f 46//46 88//88 48//48 
f 88//88 89//89 48//48 
f 48//48 89//89 50//50 
f 89//89 90//90 50//50 
f 50//50 90//90 52//52 
f 90//90 91//91 52//52 
f 52//52 91//91 54//54 
f 91//91 92//92 54//54 
f 54//54 92//92 56//56 
f 92//92 93//93 56//56 
f 56//56 93//93 58//58 
f 93//93 94//94 58//58 
f 58//58 94//94 60//60 
f 94//94 95//95 60//60 
f 60//60 95//95 62//62 
f 95//95 96//96 62//62 
f 62//62 96//96 64//64 
f 96//96 96//96 64//64 
f 64//64 96//96 65//65 
f 96//96 97//97 65//65 
f 65//65 97//97 65//65 
f 97//97 98//98 65//65 
f 65//65 98//98 66//66 
f 98//98 99//99 66//66 
f 66//66 99//99 67//67 
f 99//99 100//100 67//67 
f 67//67 100//100 68//68 
f 100//100 101//101 68//68 
f 68//68 101//101 69//69 
f 101//101 102//102 69//69 
f 69//69 102//102 70//70 
f 102//102 103//103 70//70 
f 70//70 103//103 71//71 
f 103//103 104//104 71//71 
f 71//71 104//104 72//72 
f 104//104 105//105 72//72 
f 72//72 105//105 73//73 
f 105//105 106//106 73//73 
f 73//73 106//106 74//74 
f 106//106 107//107 74//74 
f 74//74 107//107 75//75 
f 107//107 108//108 75//75 
f 75//75 108//108 76//76 
f 108//108 109//109 76//76 
f 76//76 109//109 77//77 
f 109//109 110//110 77//77 
f 77//77 110//110 78//78 
f 110//110 111//111 78//78 
f 78//78 111//111 79//79 
f 111//111 112//112 79//79 
f 79//79 112//112 80//80 
f 112//112 113//113 80//80 
f 80//80 113//113 81//81 
f 113//113 114//114 81//81 
f 81//81 114//114 82//82 
f 114//114 115//115 82//82 
f 82//82 115//115 83//83 
f 115//115 116//116 83//83 
f 83//83 116//116 84//84 
f 116//116 117//117 84//84 
f 84//84 117//117 85//85 
f 117//117 118//118 85//85 
f 85//85 118//118 86//86 
f 118//118 119//119 86//86 
f 86//86 119//119 87//87 
f 119//119 120//120 87//87 
f 87//87 120//120 88//88 
f 120//120 121//121 88//88 
f 88//88 121//121 89//89 
f 121//121 122//122 89//89 
f 89//89 122//122 90//90 
f 122//122 123//123 90//90 
f 90//90 123//123 91//91 
f 123//123 124//124 91//91 
f 91//91 124//124 92//92 
f 124//124 125//125 92//92 
f 92//92 125//125 93//93 
f 125//125 126//126 93//93 
f 93//93 126//126 94//94 
f 126//126 127//127 94//94 
f 94//94 127//127 95//95 
f 127//127 128//128 95//95 
f 95//95 128//128 96//96 
f 128//128 128//128 96//96 
f 96//96 128//128 97//97 
f 128//128 128//128 97//97 
f 97//97 128//128 129//129 
f 128//128 128//128 129//129 
f 129//129 128//128 130//130 
f 128//128 127//127 130//130 
f 130//130 127//127 131//131 
f 127//127 126//126 131//131 
f 131//131 126//126 132//132 
f 126//126 125//125 132//132 
f 132//132 125//125 133//133 
f 125//125 124//124 133//133 
f 133//133 124//124 134//134 
f 124//124 123//123 134//134 
f 134//134 123//123 135//135 
f 123//123 122//122 135//135 
f 135//135 122//122 136//136 
f 122//122 121//121 136//136 
f 136//136 121//121 137//137 
f 121//121 120//120 137//137 
f 137//137 120//120 138//138 
f 120//120 119//119 138//138 
f 138//138 119//119 139//139 
f 119//119 118//118 139//139 
f 139//139 118//118 140//140 
f 118//118 117//117 140//140 
f 140//140 117//117 141//141 
f 117//117 116//116 141//141 
f 141//141 116//116 142//142 
f 116//116 115//115 142//142 
f 142//142 115//115 143//143 
f 115//115 114//114 143//143 
f 143//143 114//114 144//144 
f 114//114 113//113 144//144 
f 144//144 113//113 145//145 
f 113//113 112//112 145//145 
f 145//145 112//112 146//146 
f 112//112 111//111 146//146 
f 146//146 111//111 147//147 
f 111//111 110//110 147//147 
f 147//147 110//110 148//148 
f 110//110 109//109 148//148 
f 148//148 109//109 149//149 
f 109//109 108//108 149//149 
f 149//149 108//108 150//150 
f 108//108 107//107 150//150 
f 150//150 107//107 151//151 
f 107//107 106//106 151//151 
f 151//151 106//106 152//152 
f 106//106 105//105 152//152 
f 152//152 105//105 153//153 
f 105//105 104//104 153//153 
f 153//153 104//104 154//154 
f 104//104 103//103 154//154 
f 154//154 103//103 155//155 
f 103//103 102//102 155//155 
f 155//155 102//102 156//156 
f 102//102 101//101 156//156 
f 156//156 101//101 157//157 
f 101//101 100//100 157//157 
f 157//157 100//100 158//158 
f 100//100 99//99 158//158 
f 158//158 99//99 159//159 
f 99//99 98//98 159//159 
f 159//159 98//98 160//160 
f 98//98 97//97 160//160 
f 160//160 97//97 129//129 
f 97//97 129//129 129//129 
f 129//129 129//129 161//161 
f 129//129 161//161 161//161 
f 161//161 161//161 162//162 
f 161//161 163//163 162//162 
f 162//162 163//163 162//162 
f 163//163 164//164 162//162 
f 162//162 164//164 165//165 
f 164//164 166//166 165//165 
f 165//165 166//166 167//167 
f 166//166 168//168 167//167 
f 167//167 168//168 169//169 
f 168//168 170//170 169//169 
f 169//169 170//170 171//171 
f 170//170 172//172 171//171 
f 171//171 172//172 173//173 
f 172//172 174//174 173//173 
f 173//173 174//174 175//175 
f 174//174 176//176 175//175 
f 175//175 176//176 177//177 
f 176//176 176//176 177//177 
f 177//177 176//176 178//178 
f 176//176 179//179 178//178 
f 178//178 179//179 178//178 
f 179//179 180//180 178//178 
f 178//178 180//180 181//181 
f 180//180 182//182 181//181 
f 181//181 182//182 183//183 
f 182//182 184//184 183//183 
f 183//183 184//184 185//185 
f 184//184 186//186 185//185 
f 185//185 186//186 187//187 
f 186//186 188//188 187//187 
f 187//187 188//188 189//189 
f 188//188 190//190 189//189 
f 189//189 190//190 191//191 
f 190//190 192//192 191//191 

